<?xml version="1.0" encoding="UTF-8"?>
<!DOCTYPE svg PUBLIC "-//W3C//DTD SVG 1.1//EN" "http://www.w3.org/Graphics/SVG/1.1/DTD/svg11.dtd">
<!-- Creator: CorelDRAW X8 -->
<svg xmlns="http://www.w3.org/2000/svg" xml:space="preserve" width="118px" height="88px" version="1.1" style="shape-rendering:geometricPrecision; text-rendering:geometricPrecision; image-rendering:optimizeQuality; fill-rule:evenodd; clip-rule:evenodd"
viewBox="0 0 1180 880"
 xmlns:xlink="http://www.w3.org/1999/xlink">
 <defs>
  <style type="text/css">
   <![CDATA[
    .str0 {stroke:#2C682C;stroke-width:20.8348}
    .fil0 {fill:none}
   ]]>
  </style>
 </defs>
 <g id="Слой_x0020_1">
  <metadata id="CorelCorpID_0Corel-Layer"/>
  <g id="_1911027745600">
   <rect class="fil0 str0" x="185" y="542" width="809" height="308"/>
   <line class="fil0 str0" x1="461" y1="542" x2="461" y2= "850" />
   <line class="fil0 str0" x1="590" y1="542" x2="590" y2= "850" />
   <line class="fil0 str0" x1="719" y1="542" x2="719" y2= "850" />
   <polyline class="fil0 str0" points="1061,157 1061,481 119,481 119,157 "/>
   <rect class="fil0 str0" x="119" y="30" width="948" height="118"/>
   <line class="fil0 str0" x1="185" y1="542" x2="119" y2= "481" />
   <line class="fil0 str0" x1="994" y1="542" x2="1061" y2= "481" />
   <line class="fil0 str0" x1="781" y1="712" x2="930" y2= "625" />
   <line class="fil0 str0" x1="830" y1="782" x2="933" y2= "722" />
   <line class="fil0 str0" x1="243" y1="712" x2="393" y2= "625" />
   <line class="fil0 str0" x1="292" y1="782" x2="395" y2= "722" />
   <rect class="fil0 str0" x="194" y="148" width="792" height="283"/>
   <line class="fil0 str0" x1="23" y1="850" x2="181" y2= "850" />
   <line class="fil0 str0" x1="999" y1="850" x2="1157" y2= "850" />
  </g>
 </g>
</svg>
