<?xml version="1.0" encoding="UTF-8"?>
<!DOCTYPE svg PUBLIC "-//W3C//DTD SVG 1.1//EN" "http://www.w3.org/Graphics/SVG/1.1/DTD/svg11.dtd">
<!-- Creator: CorelDRAW X8 -->
<svg xmlns="http://www.w3.org/2000/svg" xml:space="preserve" width="795px" height="690px" version="1.1" style="shape-rendering:geometricPrecision; text-rendering:geometricPrecision; image-rendering:optimizeQuality; fill-rule:evenodd; clip-rule:evenodd"
viewBox="0 0 7950 6900"
 xmlns:xlink="http://www.w3.org/1999/xlink">
 <defs>
  <style type="text/css">
   <![CDATA[
    .fil0 {fill:red;fill-rule:nonzero}
   ]]>
  </style>
 </defs>
 <g id="Слой_x0020_1">
  <metadata id="CorelCorpID_0Corel-Layer"/>
  <g id="_2143158873296">
   <g>
    <path class="fil0" d="M7038 5489l-210 -39 3 -19 211 38 8 10 -12 10zm12 -10l0 12 -12 -2 12 -10zm0 -463l0 463 -20 0 0 -463 8 -10 12 10zm-12 -10l12 -2 0 12 -12 -10zm-995 134l995 -134 3 20 -995 134 -12 -10 9 -10zm3 20l-12 1 0 -11 12 10zm8 -3158l0 3148 -20 0 0 -3148 20 0z"/>
   </g>
   <g>
    <path class="fil0" d="M5461 1987l583 3 0 20 -583 -3 -10 -10 10 -10zm0 20l-10 0 0 -10 10 10zm10 -451l0 441 -20 0 0 -441 7 -9 13 9zm-13 -9l13 -4 0 13 -13 -9zm-1190 379l1190 -379 6 19 -1190 379 -13 -9 7 -10zm-7 10l0 -8 7 -2 -7 10zm3 359l-3 -359 20 -1 3 360 -9 10 -11 -10zm20 0l1 10 -10 0 9 -10zm-72 -9l62 -1 1 20 -63 1 0 -20z"/>
   </g>
   <g>
    <path class="fil0" d="M4851 4574l1194 74 -1 20 -1194 -74 0 -20 1 0zm-1 0l0 0 1 0 -1 0zm-214 12l214 -12 1 20 -214 12 -1 -20z"/>
   </g>
   <g>
    <path class="fil0" d="M5447 5068l3 -446 19 0 -2 446 -10 10 -10 -10zm20 0l0 10 -10 0 10 -10zm-203 -10l193 0 0 20 -193 0 0 -20z"/>
   </g>
   <g>
    <path class="fil0" d="M4623 5316l1420 -176 3 20 -1420 175 -3 0 0 -19zm3 19l-2 1 -1 -1 3 0zm-1766 -267l1766 248 -3 19 -1766 -247 -8 -10 11 -10zm-3 20l-9 -1 1 -9 8 10zm41 -2308l-29 2298 -20 0 29 -2298 8 -10 12 10zm-12 -10l12 -3 0 13 -12 -10zm-685 165l685 -165 4 20 -684 164 -5 -19z"/>
   </g>
   <g>
    <polygon class="fil0" points="2229,3941 2873,3919 2874,3939 2229,3961 "/>
   </g>
   <g>
    <polygon class="fil0" points="2212,4973 2860,5068 2857,5088 2209,4993 "/>
   </g>
  </g>
 </g>
</svg>
