<?xml version="1.0" encoding="UTF-8"?>
<!DOCTYPE svg PUBLIC "-//W3C//DTD SVG 1.1//EN" "http://www.w3.org/Graphics/SVG/1.1/DTD/svg11.dtd">
<!-- Creator: CorelDRAW X8 -->
<svg xmlns="http://www.w3.org/2000/svg" xml:space="preserve" width="795px" height="690px" version="1.1" style="shape-rendering:geometricPrecision; text-rendering:geometricPrecision; image-rendering:optimizeQuality; fill-rule:evenodd; clip-rule:evenodd"
viewBox="0 0 7950 6900"
 xmlns:xlink="http://www.w3.org/1999/xlink">
 <defs>
  <style type="text/css">
   <![CDATA[
    .fil1 {fill:#3539A7;fill-rule:nonzero}
    .fil0 {fill:#C26A06;fill-rule:nonzero}
   ]]>
  </style>
 </defs>
 <g id="Слой_x0020_1">
  <metadata id="CorelCorpID_0Corel-Layer"/>
  <g id="_2106736754288">
   <path class="fil0" d="M1240 6015l771 -148c14,-2 26,-9 34,-19 9,-10 14,-23 14,-37l32 -2168c1,-30 13,-57 33,-76 20,-20 47,-32 77,-32l106 0 0 51 -106 0c-16,0 -31,7 -41,17 -11,11 -18,25 -18,41l-32 2167c0,27 -10,51 -25,70 -16,18 -38,32 -64,37l-772 147 -9 -50z"/>
   <polygon class="fil0" points="2353,4927 2098,4927 2098,4876 2353,4876 "/>
   <polygon class="fil0" points="2070,5842 2323,5914 2322,5967 2056,5891 "/>
  </g>
  <g id="_2106736752336">
   <g>
    <polygon class="fil1" points="2305,3517 2181,3517 2181,3488 2305,3488 "/>
   </g>
   <g>
    <path class="fil1" d="M2635 6244l692 -135 6 28 -692 136 -8 -1 2 -28zm6 29l-4 1 -4 -2 8 1zm-573 -226l575 198 -10 27 -574 -197 9 -28z"/>
   </g>
   <g>
    <path class="fil1" d="M2151 6039l30 -2540 29 0 -29 2540 -12 14 -18 -14zm30 0l-1 12 -11 2 12 -14zm-498 92l480 -106 6 28 -479 106 -7 -28z"/>
   </g>
   <g>
    <polygon class="fil1" points="2320,5888 2170,5852 2177,5823 2327,5860 "/>
   </g>
   <g>
    <polygon class="fil1" points="2287,4672 2181,4672 2181,4643 2287,4643 "/>
   </g>
  </g>
 </g>
</svg>
