<?xml version="1.0" encoding="UTF-8"?>
<!DOCTYPE svg PUBLIC "-//W3C//DTD SVG 1.1//EN" "http://www.w3.org/Graphics/SVG/1.1/DTD/svg11.dtd">
<!-- Creator: CorelDRAW X8 -->
<svg xmlns="http://www.w3.org/2000/svg" xml:space="preserve" width="795px" height="690px" version="1.1" style="shape-rendering:geometricPrecision; text-rendering:geometricPrecision; image-rendering:optimizeQuality; fill-rule:evenodd; clip-rule:evenodd"
viewBox="0 0 7950 6900"
 xmlns:xlink="http://www.w3.org/1999/xlink">
 <defs>
  <style type="text/css">
   <![CDATA[
    .str0 {stroke:black;stroke-width:19.9961;stroke-opacity:0.101961}
    .str1 {stroke:black;stroke-width:20.8347;stroke-opacity:0.109804}
    .str3 {stroke:#BBC7BB;stroke-width:39.9922}
    .str2 {stroke:#E0E0E0;stroke-width:39.9922}
    .fil21 {fill:none}
    .fil10 {fill:none}
    .fil11 {fill:none}
    .fil30 {fill:#8D968D}
    .fil41 {fill:#959E95}
    .fil12 {fill:#9BAD9B}
    .fil29 {fill:#9FB59F}
    .fil39 {fill:#A4ABA4}
    .fil16 {fill:#A8A597}
    .fil22 {fill:#A8B3A8}
    .fil14 {fill:#ADAB9F}
    .fil15 {fill:#B0ADA2}
    .fil25 {fill:#B6CCB6}
    .fil13 {fill:#B8B5A7}
    .fil17 {fill:#BBC7BB}
    .fil40 {fill:#C3CFC3}
    .fil5 {fill:#C9C6B9}
    .fil20 {fill:#D0D9D0}
    .fil27 {fill:#D1DED1}
    .fil43 {fill:#D3E0D3}
    .fil6 {fill:#D4D1C3}
    .fil42 {fill:#D7DED7}
    .fil34 {fill:#D7E0D7}
    .fil18 {fill:#E4EBE4}
    .fil7 {fill:#E6E3D6}
    .fil23 {fill:#E8E8E8}
    .fil35 {fill:#EBF0EB}
    .fil28 {fill:#F2F2F2}
    .fil36 {fill:whitesmoke}
    .fil33 {fill:#F7F7F7}
    .fil0 {fill:#FAFAFA}
    .fil19 {fill:white}
    .fil31 {fill:white}
    .fil32 {fill:#8D968D;fill-rule:nonzero}
    .fil45 {fill:#A8B3A8;fill-rule:nonzero}
    .fil37 {fill:#BBC7BB;fill-rule:nonzero}
    .fil46 {fill:#C3CFC3;fill-rule:nonzero}
    .fil44 {fill:#D0D9D0;fill-rule:nonzero}
    .fil38 {fill:white;fill-rule:nonzero}
    .fil1 {fill:#2C682C;fill-opacity:0.070588}
    .fil26 {fill:#2C682C;fill-opacity:0.090196}
    .fil24 {fill:#2C682C;fill-opacity:0.101961}
    .fil2 {fill:url(#id0);fill-opacity:0.258824}
    .fil3 {fill:url(#id1);fill-opacity:0.258824}
    .fil9 {fill:url(#id2);fill-opacity:0.258824}
    .fil4 {fill:url(#id3);fill-opacity:0.258824}
    .fil8 {fill:url(#id4);fill-opacity:0.258824}
   ]]>
  </style>
  <linearGradient id="id0" gradientUnits="userSpaceOnUse" x1="4601.2" y1="1024.3" x2="7552.19" y2="1024.3">
   <stop offset="0" style="stop-opacity:1; stop-color:white"/>
   <stop offset="1" style="stop-opacity:1; stop-color:#2C682C"/>
  </linearGradient>
  <linearGradient id="id1" gradientUnits="userSpaceOnUse" x1="1308.76" y1="2896.11" x2="4601.2" y2="2896.11">
   <stop offset="0" style="stop-opacity:1; stop-color:white"/>
   <stop offset="1" style="stop-opacity:1; stop-color:black"/>
  </linearGradient>
  <linearGradient id="id2" gradientUnits="userSpaceOnUse" xlink:href="#id0" x1="1308.76" y1="2896.11" x2="4601.2" y2="2896.11">
  </linearGradient>
  <linearGradient id="id3" gradientUnits="userSpaceOnUse" xlink:href="#id0" x1="1589.23" y1="1085.27" x2="4601.2" y2="1085.27">
  </linearGradient>
  <linearGradient id="id4" gradientUnits="userSpaceOnUse" xlink:href="#id0" x1="4601.2" y1="2932.69" x2="7930.21" y2="2932.69">
  </linearGradient>
 </defs>
 <g id="Слой_x0020_1">
  <metadata id="CorelCorpID_0Corel-Layer"/>
  <g id="_2143120963888">
   <path class="fil0" d="M5684 1487l-1412 449 0 3028 1727 151 996 -127 43 -960c-10,-498 -19,-1015 -19,-1077 0,-122 -256,-317 -451,-463 -195,-147 -390,-403 -390,-403 0,0 -342,-426 -390,-500 -19,-27 -60,-63 -104,-98z"/>
   <polygon class="fil1" points="1589,1717 2598,1861 4601,1012 6501,1743 7475,1521 4601,0 "/>
   <polygon class="fil2" points="4601,0 7552,1475 7552,2049 4601,878 "/>
   <path class="fil3" d="M1675 4914l-366 -49 36 -2597 3256 -1390 0 134 -1951 817c0,0 -85,171 -219,232 -135,61 -153,91 -232,171 -79,79 -457,457 -457,457l-67 2225z"/>
   <polygon class="fil4" points="1589,1658 4601,0 4601,878 1589,2171 "/>
   <polygon class="fil0" points="5223,5754 7003,6089 6999,5054 5223,5286 "/>
   <polygon class="fil0" points="7895,5807 7877,4937 7063,5043 7070,5737 "/>
   <polygon class="fil5" points="1747,4903 2133,4877 2176,2244 1766,2654 "/>
   <polygon class="fil5" points="1342,5729 2122,5640 2133,4984 1349,4871 "/>
   <polygon class="fil6" points="2168,6008 2823,5902 2861,1751 2193,2034 2204,2226 "/>
   <polygon class="fil7" points="3094,1643 4268,1936 4268,4964 2894,5058 2919,1725 "/>
   <path class="fil8" d="M4601 1012l927 366c0,0 207,134 256,207 49,73 390,500 390,500 0,0 195,256 390,403 196,146 452,341 452,463 0,122 36,2036 36,2036l878 -122 -24 -2670 -3305 -1317 0 134z"/>
   <path class="fil9" d="M1675 4914l-366 -49 36 -2597 3256 -1390 0 134 -1951 817c0,0 -85,171 -219,232 -135,61 -153,91 -232,171 -79,79 -457,457 -457,457l-67 2225z"/>
   <line class="fil10 str0" x1="1589" y1="1658" x2="1589" y2= "2164" />
   <line class="fil10 str0" x1="1773" y1="1619" x2="1773" y2= "2092" />
   <line class="fil10 str0" x1="1979" y1="1509" x2="1979" y2= "2000" />
   <line class="fil10 str0" x1="2178" y1="1403" x2="2178" y2= "1905" />
   <line class="fil10 str0" x1="2384" y1="1294" x2="2384" y2= "1823" />
   <line class="fil10 str0" x1="2603" y1="1177" x2="2603" y2= "1725" />
   <line class="fil10 str0" x1="2819" y1="1062" x2="2819" y2= "1631" />
   <line class="fil10 str0" x1="3073" y1="927" x2="3073" y2= "1524" />
   <line class="fil10 str0" x1="3319" y1="796" x2="3319" y2= "1417" />
   <line class="fil10 str0" x1="3560" y1="667" x2="3560" y2= "1310" />
   <line class="fil10 str0" x1="3818" y1="530" x2="3818" y2= "1192" />
   <line class="fil10 str0" x1="4100" y1="380" x2="4100" y2= "1080" />
   <line class="fil10 str0" x1="4396" y1="223" x2="4396" y2= "960" />
   <line class="fil11 str1" x1="4791" y1="206" x2="4791" y2= "955" />
   <line class="fil11 str1" x1="5051" y1="334" x2="5051" y2= "1058" />
   <line class="fil11 str1" x1="5297" y1="454" x2="5297" y2= "1159" />
   <line class="fil11 str1" x1="5519" y1="563" x2="5519" y2= "1248" />
   <line class="fil11 str1" x1="5732" y1="667" x2="5732" y2= "1333" />
   <line class="fil11 str1" x1="5944" y1="771" x2="5944" y2= "1412" />
   <line class="fil11 str1" x1="6151" y1="872" x2="6151" y2= "1494" />
   <line class="fil11 str1" x1="6356" y1="972" x2="6356" y2= "1572" />
   <line class="fil11 str1" x1="6557" y1="1071" x2="6557" y2= "1651" />
   <line class="fil11 str1" x1="6756" y1="1168" x2="6756" y2= "1732" />
   <line class="fil11 str1" x1="6935" y1="1256" x2="6935" y2= "1805" />
   <line class="fil11 str1" x1="7113" y1="1347" x2="7113" y2= "1874" />
   <line class="fil11 str1" x1="7260" y1="1416" x2="7260" y2= "1939" />
   <line class="fil11 str1" x1="7428" y1="1497" x2="7425" y2= "1995" />
   <line class="fil11 str1" x1="7552" y1="1558" x2="7552" y2= "2049" />
   <path class="fil10 str0" d="M5978 1541l0 296m228 -208l0 494m206 -414l0 656m211 -575l-8 736m217 -656l-9 822m212 -744l-3 859m215 2153l1 -1010m0 -93l0 -902m0 -103l0 -822m187 72l2 789m0 103l2 872m0 91l3 976m183 -25l-4 -944m-1 -90l-3 -844m-1 -101l-3 -759m170 66l4 728m0 101l4 816m1 89l4 895m110 -2670l7 796m1 100l7 796m1 89l8 889"/>
   <polygon class="fil12" points="4601,878 7906,2195 7907,2283 4601,1012 "/>
   <polygon class="fil12" points="4601,0 7552,1475 7552,1558 4601,113 "/>
   <path class="fil12" d="M6919 2784c41,43 72,84 87,122l0 0 908 185 -1 -100 -994 -207z"/>
   <polygon class="fil12" points="7921,3887 7031,3847 7033,3941 7922,3976 "/>
   <line class="fil10 str0" x1="1812" y1="2194" x2="1809" y2= "2561" />
   <line class="fil10 str0" x1="2044" y1="2096" x2="2040" y2= "2341" />
   <line class="fil10 str0" x1="2303" y1="1986" x2="2304" y2= "2132" />
   <path class="fil10 str0" d="M1344 2268l-11 766m-1 118l-10 746m-2 110l-11 857"/>
   <line class="fil10 str0" x1="1578" y1="2294" x2="1539" y2= "4896" />
   <polygon class="fil13" points="3094,1643 4268,1936 5766,1460 4601,1012 "/>
   <polygon class="fil7" points="2887,6251 5221,5759 5225,5283 4622,5362 2895,5106 "/>
   <polygon class="fil5" points="2885,6245 5219,5752 7000,6087 4622,6825 "/>
   <polygon class="fil13" points="2911,2797 4280,2996 5987,2692 4597,2411 "/>
   <polygon class="fil14" points="2915,3945 4610,3874 5987,3911 4280,3996 "/>
   <polygon class="fil5" points="7902,5807 7070,5737 7073,6064 "/>
   <polygon class="fil13" points="2171,6006 2827,5899 2824,6224 "/>
   <polygon class="fil15" points="1342,5729 2122,5640 2116,5988 "/>
   <polygon class="fil13" points="2200,2960 2853,3027 2855,2796 "/>
   <polygon class="fil13" points="1763,3060 2163,3116 2166,2968 "/>
   <polygon class="fil5" points="2894,5058 4267,4965 5995,5115 4622,5289 "/>
   <polygon class="fil16" points="1744,4904 2135,4872 2133,4956 "/>
   <polygon class="fil13" points="6104,4992 7020,5031 6104,5147 "/>
   <polygon class="fil13" points="6063,2712 7006,2906 6065,3011 "/>
   <path class="fil17" d="M3342 5708l191 37 301 -32 -195 -28c-9,-1 -17,-1 -26,0l-271 23z"/>
   <path class="fil18" d="M3552 5743l282 -30 3 505 -270 69c-25,7 -47,5 -71,-4l-158 -60 3 -518 175 36c12,3 23,3 36,2z"/>
   <path class="fil19" d="M3536 6291c-13,0 -27,-3 -40,-8l-158 -60 3 -518 175 36c7,2 13,2 20,3l0 547z"/>
   <polygon class="fil20" points="3771,5995 3772,6080 3645,6113 3646,6026 "/>
   <polyline class="fil21" points="4752,3772 5200,3789 5139,3843 4751,3826 "/>
   <path class="fil17" d="M4363 3846l-44 -2c0,-51 1,-133 0,-164 0,-38 5,-69 44,-72l0 238z"/>
   <polygon class="fil22" points="4686,3857 4363,3846 4363,3608 4686,3621 "/>
   <path class="fil20" d="M4627 3796l-44 -2c0,-52 1,-133 1,-164 -1,-38 4,-63 43,-67l406 2c39,3 45,45 44,83 -1,31 0,113 0,165l-43 1 -407 -18z"/>
   <path class="fil17" d="M5077 3567c41,7 45,43 45,81 1,31 1,113 1,165l-44 1 -21 -1 19 0c0,-52 -1,-134 0,-165 1,-38 -10,-80 -49,-83l49 2z"/>
   <path class="fil17" d="M4799 3861l-44 -1c0,-52 1,-133 1,-164 -1,-38 4,-69 43,-73l0 238z"/>
   <polygon class="fil22" points="5122,3872 4799,3861 4799,3623 5123,3637 "/>
   <polygon class="fil17" points="4363,3794 4363,3846 4755,3860 4756,3797 "/>
   <polygon class="fil17" points="5262,3860 5233,3602 5417,3605 5383,3864 "/>
   <polygon class="fil22" points="5350,3604 5417,3605 5383,3864 5335,3863 "/>
   <polygon class="fil23" points="4597,2338 6982,2861 7006,2906 4597,2411 "/>
   <polygon class="fil23" points="4610,3813 7032,3909 7033,3953 4610,3874 "/>
   <polygon class="fil23" points="4622,5289 7930,4870 7929,4930 4622,5362 "/>
   <polygon class="fil23" points="7930,4870 7951,5838 7896,5868 7875,4877 "/>
   <polygon class="fil23" points="4622,6825 7902,5807 7923,5853 4622,6899 "/>
   <polygon class="fil23" points="7029,3744 7063,5043 6992,4989 "/>
   <polygon class="fil23" points="6995,5052 7000,6087 7073,6064 7063,5043 "/>
   <polygon class="fil23" points="5978,1837 5995,5115 6076,5105 6059,1940 "/>
   <path class="fil24" d="M7062 4980l868 -115 -11 -1240c0,0 -17,-81 -66,-81 -49,0 -36,24 -36,24 0,0 12,-85 -13,-85 -24,0 -24,0 -48,-25 -25,-24 -61,-12 -61,12 0,25 -25,37 -25,37 0,0 25,-49 0,-73 -24,-25 -73,-25 -73,-25l-37 -24c0,0 -60,-12 -73,12 -12,25 -36,12 -36,-12 0,-24 36,-49 0,-85 -37,-37 -49,-86 -86,-134 -36,-49 -85,48 -85,48 0,0 0,73 -24,61 -25,-12 -74,-61 -98,-12 -24,49 -61,49 -61,49 0,0 -24,24 -49,61 -24,36 -25,54 -25,54l39 1553z"/>
   <polygon class="fil25" points="1589,1658 1589,1717 4601,113 4601,0 "/>
   <polygon class="fil25" points="4601,878 4601,1012 1344,2393 1345,2268 "/>
   <polygon class="fil25" points="1335,3034 1734,2951 1730,3070 1333,3153 "/>
   <polygon class="fil25" points="1322,3899 1706,3875 1703,3981 1321,4006 "/>
   <path class="fil26" d="M1326 3613c0,0 -21,-155 52,-191 73,-37 85,-122 85,-122 0,0 46,-191 102,-138 57,52 -2,133 -2,133l155 117 -45 1502 -366 -49 19 -1252z"/>
   <polyline class="fil21 str2" points="1355,4866 1347,5766 4660,6900 "/>
   <polygon class="fil19" points="2322,6018 2511,6080 2514,5540 2325,5510 "/>
   <polygon class="fil18" points="2511,6080 2513,5539 2808,5508 2811,6003 "/>
   <polygon class="fil17" points="2325,5510 2513,5539 2808,5508 2604,5479 "/>
   <path class="fil27" d="M2514 5540l82 -9 0 86 -82 12 0 -89zm101 -11l193 -21 1 78 -194 28 0 -85z"/>
   <path class="fil28" d="M2654 5698c50,-18 98,16 108,76 10,60 -23,123 -73,142 -50,18 -99,-16 -108,-76 -10,-60 23,-124 73,-142z"/>
   <path class="fil29" d="M2779 5531c9,-3 17,3 19,14 2,10 -4,22 -13,25 -9,3 -18,-3 -19,-14 -2,-10 4,-22 13,-25z"/>
   <polygon class="fil18" points="6759,5865 6360,5788 6360,5272 6758,5317 "/>
   <polygon class="fil17" points="6857,5800 6759,5865 6758,5319 6856,5297 "/>
   <polygon class="fil22" points="6856,5297 6758,5319 6360,5272 6464,5254 "/>
   <polygon class="fil20" points="6759,5865 6360,5788 6360,5631 6760,5702 "/>
   <polygon class="fil22" points="6443,5484 6414,5480 6414,5404 6444,5407 "/>
   <polygon class="fil30" points="6443,5529 6414,5525 6414,5448 6444,5452 "/>
   <polygon class="fil18" points="6420,5416 6420,5444 6437,5446 6437,5416 "/>
   <polygon class="fil22" points="6486,5489 6456,5485 6456,5408 6487,5412 "/>
   <polygon class="fil30" points="6486,5533 6456,5529 6456,5453 6487,5456 "/>
   <polygon class="fil18" points="6463,5420 6463,5448 6480,5450 6480,5421 "/>
   <polygon class="fil22" points="6528,5497 6498,5493 6498,5416 6528,5420 "/>
   <polygon class="fil30" points="6528,5541 6498,5537 6498,5461 6528,5464 "/>
   <polygon class="fil18" points="6504,5428 6504,5456 6521,5458 6521,5429 "/>
   <polygon class="fil22" points="6572,5502 6542,5498 6542,5422 6572,5425 "/>
   <polygon class="fil30" points="6572,5546 6542,5542 6542,5466 6572,5469 "/>
   <polygon class="fil18" points="6548,5434 6548,5462 6565,5464 6565,5434 "/>
   <polygon class="fil31" points="6661,5443 6692,5501 6721,5563 6598,5544 6630,5494 "/>
   <g>
    <path class="fil32" d="M6646 5510l12 -29 6 2 -12 30 -3 2 -3 -5zm3 5l-5 1 2 -6 3 5zm19 -3l-19 3 -1 -7 20 -2 3 4 -3 2zm0 -6l4 -1 -1 5 -3 -4zm-10 33l7 -31 6 2 -7 30 -6 -1z"/>
   </g>
   <path class="fil22" d="M5734 5555l0 284 0 9c0,36 -29,65 -65,65 -38,0 -68,-26 -68,-65l0 -9 0 -284c0,-49 6,-75 65,-75 58,0 68,24 68,75z"/>
   <path class="fil17" d="M5662 5499l11 0c16,0 29,-8 29,-18l0 -32 0 -1c0,-16 -13,-29 -29,-29l-11 0c-16,0 -29,13 -29,29l0 1 0 32c0,10 13,18 29,18z"/>
   <path class="fil22" d="M5666 5380l3 0c7,0 12,7 12,15l0 26c0,3 -3,6 -6,6l-15 0c-4,0 -7,-3 -7,-6l0 -26c0,-8 6,-15 13,-15z"/>
   <path class="fil22" d="M5904 5572l0 296 0 10c0,37 -31,68 -68,68 -40,0 -72,-28 -72,-68l0 -10 0 -296c0,-51 7,-79 68,-79 61,0 72,25 72,79z"/>
   <path class="fil17" d="M5828 5513l12 0c16,0 30,-8 30,-19l0 -32 0 -2c0,-17 -14,-30 -30,-30l-12 0c-16,0 -30,13 -30,30l0 2 0 32c0,11 14,19 30,19z"/>
   <path class="fil22" d="M5832 5390l3 0c8,0 13,6 13,15l0 27c0,4 -3,7 -6,7l-16 0c-4,0 -7,-3 -7,-7l0 -27c0,-9 6,-15 13,-15z"/>
   <path class="fil22" d="M6082 5591l0 307 0 11c0,38 -32,70 -70,70 -41,0 -75,-28 -75,-70l0 -11 0 -307c0,-53 7,-82 71,-82 63,0 74,26 74,82z"/>
   <path class="fil17" d="M6004 5530l12 0c17,0 31,-9 31,-20l0 -34 0 -2c0,-17 -14,-31 -31,-31l-12 0c-17,0 -32,14 -32,31l0 2 0 34c0,11 15,20 32,20z"/>
   <path class="fil22" d="M6008 5401l3 0c8,0 14,8 14,16l0 28c0,4 -3,7 -7,7l-16 0c-4,0 -7,-3 -7,-7l0 -28c0,-8 6,-16 13,-16z"/>
   <path class="fil20" d="M5601 5606l0 76c16,10 73,12 97,4l0 -75c0,0 -42,6 -97,-5z"/>
   <path class="fil20" d="M5764 5621l0 77c17,10 73,11 98,3l0 -75c0,0 -42,7 -98,-5z"/>
   <path class="fil20" d="M5937 5639l0 76c17,10 74,12 98,3l0 -75c0,0 -42,7 -98,-4z"/>
   <polygon class="fil33" points="3084,4920 3842,4869 3842,4498 3087,4492 "/>
   <polygon class="fil31" points="3084,4920 3043,4914 3043,4492 3087,4492 "/>
   <g id="_2106730248320">
    <path class="fil27" d="M3167 4861c11,-207 7,-103 12,-311 4,208 0,104 11,311l-23 0zm-48 0c11,-207 7,-103 11,-311 5,208 1,104 12,311l-23 0zm680 -43c11,-175 7,-88 11,-263 5,175 1,88 12,263l-23 0zm-49 3c11,-177 7,-88 12,-266 4,178 0,89 11,266l-23 0zm-48 3c10,-179 7,-89 11,-269 5,180 1,90 12,269l-23 0zm-49 4c11,-183 7,-91 12,-274 4,183 0,91 11,274l-23 0zm-48 3c10,-185 7,-92 11,-277 4,185 1,92 11,277l-22 0zm-49 3c11,-187 7,-93 11,-281 5,188 1,94 12,281l-23 0zm-49 4c11,-190 7,-95 12,-285 4,190 0,95 11,285l-23 0zm-48 3c11,-192 7,-96 11,-288 5,192 1,96 12,288l-23 0zm-49 3c11,-194 7,-97 12,-292 4,195 0,98 11,292l-23 0zm-48 4c10,-197 7,-99 11,-296 5,197 1,99 12,296l-23 0zm-49 3c11,-200 7,-100 12,-299 4,199 0,99 11,299l-23 0zm-48 3c10,-202 6,-101 11,-303 4,202 1,101 11,303l-22 0zm-49 4c11,-205 7,-103 11,-307 5,204 1,102 12,307l-23 0z"/>
   </g>
   <path class="fil21" d="M3179 4861l0 -311m48 308l0 -307m49 303l0 -303m49 300l0 -299m48 296l0 -296m49 292l0 -292m48 289l0 -288m49 285l0 -285m48 281l0 -281m49 278l0 -277m49 274l0 -274m48 270l0 -269m49 266l0 -266m48 263l0 -263m-680 306l0 -311"/>
   <polygon class="fil13" points="2181,4962 2832,4906 2831,5049 "/>
   <polygon class="fil33" points="3071,3360 3067,3778 3826,3774 3829,3423 "/>
   <polygon class="fil31" points="3071,3360 3029,3369 3030,3778 3067,3778 "/>
   <g id="_2106730238016">
    <path class="fil27" d="M3153 3732c10,-206 6,-103 11,-310 4,208 1,104 11,311l-22 -1zm-49 -2c11,-207 7,-103 11,-310 5,208 1,104 12,312l-23 -2zm680 -10c11,-174 7,-87 12,-262 4,176 0,88 11,263l-23 -1zm-48 1c10,-177 6,-88 11,-265 4,177 1,88 11,266l-22 -1zm-49 1c11,-179 7,-89 11,-269 5,180 1,90 12,270l-23 -1zm-49 1c11,-182 7,-91 12,-273 4,183 0,91 11,274l-23 -1zm-48 1c11,-184 7,-92 11,-277 5,185 1,93 12,278l-23 -1zm-49 1c11,-187 7,-93 12,-281 4,188 0,94 11,282l-23 -1zm-48 1c10,-189 7,-95 11,-284 4,190 1,95 11,285l-22 -1zm-49 1c11,-192 7,-96 11,-288 5,192 1,96 12,289l-23 -1zm-49 1c11,-194 7,-97 12,-292 4,195 1,98 11,293l-23 -1zm-48 1c11,-197 7,-99 11,-296 5,198 1,99 12,297l-23 -1zm-49 1c11,-199 7,-100 12,-299 4,200 0,100 11,300l-23 -1zm-48 0c10,-201 7,-100 11,-302 5,202 1,101 12,304l-23 -2zm-49 1c11,-204 7,-101 12,-306 4,205 0,103 11,308l-23 -2z"/>
   </g>
   <path class="fil21" d="M3164 3733l0 -311m49 310l0 -307m48 306l0 -303m49 302l0 -299m48 298l0 -296m49 295l0 -292m48 291l0 -288m49 287l0 -284m49 283l0 -281m48 281l0 -278m49 277l0 -274m48 273l0 -270m49 269l0 -266m49 265l0 -263m-681 273l0 -311"/>
   <polygon class="fil18" points="2341,4952 2642,4991 2642,4955 2345,4920 "/>
   <polygon class="fil34" points="2642,4991 2815,4967 2815,4934 2642,4958 "/>
   <polygon class="fil35" points="2811,4938 2739,4813 2612,4811 2644,4958 "/>
   <polygon class="fil17" points="2286,4391 2351,4400 2583,4393 2505,4384 "/>
   <path class="fil31" d="M2286 4636l0 -245 71 11 1 284c85,-2 289,4 458,29 -4,133 -196,126 -196,126l24 117 -299 -38 32 -77c38,-93 -91,-85 -91,-207z"/>
   <path class="fil36" d="M2620 4841c0,0 173,12 206,-113 -13,-2 -51,-19 -63,-21 -53,14 -83,4 -94,53 -11,50 -49,81 -49,81z"/>
   <polygon class="fil36" points="2356,4688 2582,4671 2583,4393 2356,4402 2356,4609 "/>
   <path class="fil34" d="M2582 4680c59,5 197,17 243,34 1,5 0,25 -5,30 -19,26 -120,27 -167,20 -110,-14 -242,-44 -295,-52l0 -26 224 -6z"/>
   <path class="fil17" d="M2791 4705c14,3 25,6 34,9 1,5 0,25 -5,30 -17,23 -98,26 -149,22 2,-7 5,-14 6,-19 1,-15 1,-22 1,-22l113 -20z"/>
   <path class="fil22" d="M2585 4668c79,9 233,28 235,44 1,12 -20,16 -36,21 -95,30 -347,-38 -425,-49l226 -16z"/>
   <path class="fil37" d="M2467 3483l1 -125c0,0 1,-62 63,-65 52,10 63,50 58,67 0,0 4,-47 -57,-44 -43,2 -43,43 -43,43l-1 124 -21 0z"/>
   <path class="fil38" d="M2455 3483l0 -125c0,0 1,-62 64,-65 84,-4 78,65 78,65l-21 2c0,0 4,-47 -57,-44 -42,2 -43,43 -43,43l0 124 -21 0z"/>
   <path class="fil18" d="M2754 4175c14,1 22,18 25,47 2,19 -4,69 -29,69l-169 0 4 -127 169 11z"/>
   <circle class="fil19" transform="matrix(-0.0268768 -0.27456 0.140064 -0.064878 2582.78 4227.35)" r="225"/>
   <circle class="fil30" transform="matrix(-0.0121229 -0.123841 0.0631764 -0.0292635 2579.27 4227.35)" r="225"/>
   <polygon class="fil17" points="2508,4213 2481,4204 2481,4226 2508,4234 2582,4239 2582,4217 "/>
   <polygon class="fil18" points="2508,4206 2481,4199 2481,4217 2508,4223 2582,4227 2582,4210 "/>
   <path class="fil19" d="M2585 4164c54,6 48,77 47,98l148 1c0,0 3,-86 -21,-88 -29,-2 -174,-11 -174,-11z"/>
   <path class="fil17" d="M1054 5710c66,-1 190,170 193,374 3,204 -65,335 -181,366l-876 145 -31 -738 856 -140c13,-4 -26,-6 39,-7z"/>
   <polygon class="fil17" points="690,5540 1027,5536 1027,5575 1017,5582 1019,5607 1028,5605 1028,5638 1018,5642 1018,5666 1029,5666 1029,5696 1018,5701 1018,5727 1030,5727 1031,5780 852,5896 694,5855 693,5731 706,5733 708,5707 693,5700 692,5672 703,5671 702,5649 692,5642 691,5613 704,5612 704,5589 691,5582 "/>
   <path class="fil39" d="M858 5514c93,-2 169,8 169,22 0,13 -77,33 -171,35 -93,1 -166,-16 -166,-30 -1,-14 75,-26 168,-27z"/>
   <path class="fil17" d="M991 5521c0,13 -59,25 -133,27 -73,1 -133,-9 -133,-23 0,-1 0,-2 0,-3l-2 -69 267 -4 1 72z"/>
   <ellipse class="fil30" transform="matrix(0.24152 -0.0037941 0.0037941 0.24152 856.781 5451.47)" rx="551" ry="102"/>
   <path class="fil39" d="M1017 5603c1,13 -69,35 -156,37 -88,1 -160,-19 -160,-32l0 -26c0,14 72,35 159,33 87,-1 157,-25 157,-38l0 26z"/>
   <path class="fil39" d="M1018 5664c0,13 -70,35 -158,37 -87,1 -158,-18 -158,-32l0 -26c0,14 71,35 158,33 87,-1 158,-24 158,-38l0 26z"/>
   <path class="fil39" d="M1018 5723c0,13 -67,37 -154,38 -86,2 -158,-19 -158,-33l-1 -25c1,13 73,38 159,36 86,-1 154,-28 154,-42l0 26z"/>
   <path class="fil27" d="M178 5855c118,-1 191,169 194,370 3,202 -63,366 -181,368 -119,2 -188,-155 -192,-357 -3,-201 61,-379 179,-381z"/>
   <path class="fil17" d="M178 5855c5,0 9,1 14,1 -17,20 -93,124 -92,358 1,93 9,168 20,227 15,81 32,130 39,148 -5,-1 -11,-3 -16,-5 -13,-28 -30,-75 -43,-140 -11,-60 -19,-136 -20,-230 -1,-208 59,-318 87,-358 3,0 7,0 11,-1z"/>
   <polygon class="fil17" points="468,6473 491,6600 580,6579 554,6450 "/>
   <path class="fil27" d="M421 6557c0,0 25,-15 34,-38 9,-22 13,-46 13,-46l14 77 11 50 -72 -43z"/>
   <polygon class="fil17" points="949,6390 971,6517 1061,6497 1035,6368 "/>
   <path class="fil27" d="M902 6474c0,0 24,-15 34,-37 9,-23 13,-47 13,-47l13 78 11 49 -71 -43z"/>
   <polygon class="fil22" points="4603,4631 4601,5019 4989,5068 5017,5063 5016,4632 "/>
   <polygon class="fil18" points="4577,4627 4575,5027 4989,5068 4989,4641 "/>
   <polygon class="fil22" points="4459,4937 4459,4703 4715,4670 4717,4902 "/>
   <polygon class="fil22" points="4070,4691 4068,5091 4456,5141 4482,5136 4482,4705 "/>
   <polygon class="fil22" points="4044,4690 4603,4618 5016,4630 5016,4658 4456,4729 "/>
   <polygon class="fil19" points="4044,4676 4042,5099 4456,5140 4457,4702 "/>
   <polygon class="fil40" points="4042,4680 4604,4620 5016,4630 4456,4702 "/>
   <polygon class="fil18" points="4481,4815 4483,4727 4700,4701 4700,4789 "/>
   <polygon class="fil18" points="4483,4912 4482,4836 4700,4807 4700,4884 "/>
   <polygon class="fil41" points="4408,4652 4408,4635 4786,4616 4786,4632 4569,4660 "/>
   <polygon class="fil41" points="4569,4660 4561,4632 4786,4617 4786,4632 "/>
   <path class="fil17" d="M4384 4267l314 -14c9,-1 16,2 23,8 7,6 10,13 10,22l6 212c0,16 -21,42 -37,44l-322 36c-18,2 -34,-9 -34,-27l-3 -232c0,-16 27,-49 43,-49z"/>
   <polygon class="fil22" points="4408,4635 4626,4612 4786,4616 4603,4640 4569,4644 "/>
   <polygon class="fil42" points="4505,4554 4525,4632 4547,4633 4599,4612 4601,4547 "/>
   <polygon class="fil22" points="4519,4546 4542,4636 4643,4623 4615,4538 "/>
   <path class="fil22" d="M4387 4267l328 -17c18,-1 33,11 33,29l-1 213c0,16 -12,41 -28,43l-330 40c-27,4 -29,-20 -29,-47l-2 -230c0,-16 12,-30 29,-31z"/>
   <polygon class="fil19" points="4390,4293 4722,4271 4721,4503 4386,4544 "/>
   <circle class="fil19" transform="matrix(0.365973 -0.0325019 -0 0.365973 4574.31 4534.38)" r="25"/>
   <path class="fil17" d="M3915 5440l192 37 300 -32 -194 -28c-9,-1 -17,-1 -27,0l-271 23z"/>
   <path class="fil18" d="M4409 5952l1 144 -269 69c-25,6 -48,5 -72,-4l-158 -61 1 -143 -1 -1 4 -517 174 36c12,2 23,3 36,1l282 -29 3 504 -1 1z"/>
   <path class="fil19" d="M4109 6169c-13,0 -26,-3 -40,-8l-158 -61 1 -145 -1 -1 4 -517 174 36c7,1 14,2 20,2l0 146 0 402 0 146z"/>
   <g id="_2106730865680">
    <polygon class="fil22" points="4265,5602 4269,5704 4265,5808 4273,5806 4269,5704 4273,5601 "/>
   </g>
   <line class="fil21" x1="4269" y1="5601" x2="4269" y2= "5807" />
   <g id="_2106730866800">
    <path class="fil22" d="M4297 5617c0,0 -28,18 -28,18l0 0c-17,-6 -8,-4 -29,-5l17 -21c5,20 1,11 12,26 10,-19 6,-9 12,-31l16 13z"/>
   </g>
   <polyline class="fil21" points="4289,5610 4269,5635 4249,5620 "/>
   <g id="_2106730863056">
    <path class="fil22" d="M4297 5778c0,0 -28,-5 -28,-5l0 0c-17,14 -8,8 -29,18l17 13c5,-22 1,-11 12,-31 10,15 6,6 12,26l16 -21z"/>
   </g>
   <polyline class="fil21" points="4289,5789 4269,5773 4249,5798 "/>
   <g id="_2106730915664">
    <polygon class="fil22" points="4339,5613 4269,5704 4194,5791 4199,5795 4269,5704 4344,5617 "/>
   </g>
   <line class="fil21" x1="4342" y1="5615" x2="4196" y2= "5793" />
   <g id="_2106730914992">
    <path class="fil22" d="M4346 5650c0,0 -28,-6 -28,-6l0 0c-5,-18 -1,-9 -12,-26l23 -5c-11,21 -7,11 -11,31 19,-9 10,-3 28,-18l0 24z"/>
   </g>
   <polyline class="fil21" points="4346,5638 4318,5644 4318,5616 "/>
   <g id="_2106730915440">
    <path class="fil22" d="M4232 5790c0,0 -12,-26 -12,-26l0 0c-20,0 -10,1 -28,-5l0 23c18,-15 8,-9 28,-18 -5,21 -1,10 -12,31l24 -5z"/>
   </g>
   <polyline class="fil21" points="4220,5792 4220,5764 4192,5770 "/>
   <g id="_2106730912976">
    <path class="fil22" d="M4166 5731c4,-1 96,-18 103,-27l103 -19 0 -8 -103 27 -103 20 0 7z"/>
   </g>
   <line class="fil21" x1="4166" y1="5727" x2="4372" y2= "5681" />
   <g id="_2106730913392">
    <path class="fil22" d="M4188 5694c0,0 12,26 12,26l0 0c-11,19 -6,9 -12,31l-17 -13c21,-10 12,-4 29,-18 -17,-7 -8,-5 -29,-6l17 -20z"/>
   </g>
   <polyline class="fil21" points="4180,5704 4200,5720 4180,5745 "/>
   <g id="_2106730913168">
    <path class="fil22" d="M4350 5657c-6,22 -2,12 -12,32l0 0c0,0 12,25 12,25l16 -20c-21,-1 -11,1 -28,-5 17,-15 7,-9 28,-19l-16 -13z"/>
   </g>
   <polyline class="fil21" points="4358,5664 4338,5689 4358,5704 "/>
   <g id="_2106730911280">
    <polygon class="fil22" points="4194,5651 4269,5704 4339,5764 4344,5757 4269,5704 4199,5645 "/>
   </g>
   <line class="fil21" x1="4196" y1="5648" x2="4342" y2= "5760" />
   <g id="_2106730910704">
    <path class="fil22" d="M4232 5635c-11,21 -7,11 -12,32l0 0c0,0 -28,18 -28,18l0 -24c18,7 8,5 28,6 -5,-19 -1,-10 -12,-26l24 -6z"/>
   </g>
   <polyline class="fil21" points="4220,5638 4220,5667 4192,5673 "/>
   <g id="_2106730911760">
    <path class="fil22" d="M4346 5724c-18,14 -9,9 -28,18l0 0c0,0 -12,31 -12,31l23 -5c-11,-16 -7,-8 -11,-26 19,0 10,-2 28,5l0 -23z"/>
   </g>
   <polyline class="fil21" points="4346,5735 4318,5742 4318,5770 "/>
   <polygon class="fil22" points="5922,2296 5920,2628 5474,2530 5474,2190 "/>
   <polygon class="fil17" points="5474,2190 5413,2217 5413,2517 5474,2530 "/>
   <polygon class="fil17" points="5449,2343 5046,2437 5433,2522 "/>
   <polygon class="fil17" points="4213,2299 4190,2321 3670,2255 3673,1905 3699,1876 "/>
   <polygon class="fil22" points="4213,2002 4209,2302 3695,2225 3699,1876 "/>
   <polygon class="fil18" points="4186,2013 4187,2277 3722,2207 3725,1903 "/>
   <polygon class="fil41" points="3670,2255 3695,2225 4209,2302 4190,2321 "/>
   <polygon class="fil33" points="3107,2754 3279,2712 3279,1789 3107,1841 "/>
   <polygon class="fil17" points="3279,1789 3627,1873 3627,2627 3279,2712 "/>
   <polygon class="fil18" points="3303,1821 3603,1894 3603,2613 3303,2679 "/>
   <path class="fil43" d="M3303 2413c0,0 23,-8 34,-26 11,-19 33,-41 33,-41l26 22 33 19 36 -14 22 -12c0,0 7,-22 18,-26 11,-3 33,-11 37,4 4,15 15,37 37,44 22,7 24,38 24,39l0 185 -300 55 0 -249z"/>
   <line class="fil21 str3" x1="3465" y1="2666" x2="3465" y2= "1834" />
   <path class="fil31" d="M1744 4917l24 -2254 -26 26 -67 2225c32,-15 45,1 69,3z"/>
   <polygon class="fil31" points="1675,4914 4622,5362 4622,5289 1707,4899 "/>
   <polygon class="fil31" points="1750,3993 4610,3874 4610,3813 1751,3960 "/>
   <polygon class="fil31" points="1763,3025 4597,2338 4597,2411 1763,3060 "/>
   <polygon class="fil31" points="2177,2253 2116,6027 2171,6057 2207,2223 "/>
   <polygon class="fil31" points="2864,1748 2823,6283 2884,6313 2919,1725 "/>
   <polygon class="fil31" points="1309,4865 1309,5765 1341,5777 1349,4871 "/>
   <polygon class="fil31" points="1341,5777 4622,6899 4622,6825 1342,5729 "/>
   <g id="_2143120951280">
    <path class="fil19" d="M3759 2142c71,-164 175,77 204,-59 2,-11 120,-78 134,58 6,55 44,55 94,67 -200,21 -32,-142 -198,-109 -40,159 -119,-75 -234,43z"/>
   </g>
   <path class="fil21" d="M3759 2142c78,-145 202,102 220,-57 197,-47 13,123 212,123"/>
   <g id="_2143120951664">
    <path class="fil18" d="M4435 4337c-8,41 -5,23 -9,72 12,0 49,-1 53,-2l2 0c-4,-53 -2,-30 -5,-77 -28,4 -20,2 -41,7zm-13 -11l0 -15c79,16 73,-17 59,96 0,0 -60,8 -60,8 -1,0 -13,-86 -13,-89l14 0z"/>
   </g>
   <polygon class="fil21" points="4422,4326 4422,4412 4481,4407 4481,4324 "/>
   <g id="_2143120948176">
    <path class="fil18" d="M4523 4314c114,-9 57,-7 170,-4 -113,9 -56,8 -170,4z"/>
   </g>
   <line class="fil21" x1="4523" y1="4314" x2="4693" y2= "4310" />
   <g id="_2143120949872">
    <path class="fil18" d="M4523 4381c114,-9 57,-8 170,-4 -113,9 -56,7 -170,4z"/>
   </g>
   <line class="fil21" x1="4523" y1="4381" x2="4693" y2= "4377" />
   <g id="_2143120949040">
    <path class="fil18" d="M4427 4451c177,-17 89,-12 267,-17 -177,18 -89,12 -267,17z"/>
   </g>
   <line class="fil21" x1="4427" y1="4451" x2="4694" y2= "4434" />
   <g id="_2143120947024">
    <path class="fil17" d="M2658 5698c210,-55 82,360 -52,201 -49,-58 -29,-163 52,-201zm0 0c-99,52 -88,187 -16,210 132,44 173,-244 16,-210z"/>
   </g>
   <path class="fil21" d="M2658 5698c50,-18 99,16 108,76 10,60 -23,123 -73,142 -50,18 -98,-16 -108,-76 -10,-60 23,-124 73,-142z"/>
   <g id="_2143120947536">
    <path class="fil17" d="M3771 5995c4,110 30,76 -62,106 -86,28 -82,50 -67,-75 1,-9 119,-28 129,-31zm0 0c-82,23 -42,12 -121,34 2,49 0,31 4,71 70,-11 36,-5 115,-22 2,-54 1,-27 2,-83z"/>
   </g>
   <polygon class="fil21" points="3771,5995 3772,6080 3645,6113 3646,6026 "/>
   <g id="_2143120943952">
    <path class="fil30" d="M6662 5439c61,108 126,160 -64,108 -9,-2 57,-97 64,-108zm0 0c-19,32 -10,16 -29,48l0 0c-21,38 -11,21 -31,56 77,5 41,1 116,13 -17,-38 -9,-19 -28,-62l0 0c-19,-37 -9,-19 -28,-55z"/>
   </g>
   <polygon class="fil21" points="6662,5439 6691,5493 6722,5560 6598,5545 6633,5486 "/>
   <g id="_2143120945904">
    <path class="fil17" d="M5602 5608c1,50 1,25 2,75 29,12 62,8 92,1 2,-45 1,-23 2,-70 -49,3 -18,2 -96,-6zm0 0c0,0 100,5 100,5 9,70 20,79 -25,82 -103,6 -76,-14 -75,-87z"/>
   </g>
   <path class="fil21" d="M5602 5608l0 76c17,10 74,12 98,3l0 -74c0,0 -42,6 -98,-5z"/>
   <g id="_2143120942832">
    <path class="fil17" d="M5766 5623c0,51 0,26 1,76 29,11 62,8 92,1 2,-45 1,-23 3,-70 -49,2 -18,2 -96,-7zm0 0c0,0 99,5 99,5 9,71 21,79 -25,82 -103,7 -76,-14 -74,-87z"/>
   </g>
   <path class="fil21" d="M5766 5623l0 76c16,11 73,12 97,4l0 -75c0,0 -42,7 -97,-5z"/>
   <g id="_2143120943440">
    <path class="fil17" d="M5938 5641c1,50 1,25 2,75 29,11 62,8 92,1 2,-45 1,-23 2,-70 -49,2 -18,2 -96,-6zm0 0c0,0 99,4 99,4 10,71 21,79 -24,82 -103,7 -76,-14 -75,-86z"/>
   </g>
   <path class="fil21" d="M5938 5641l0 75c17,11 74,12 98,4l0 -75c0,0 -42,7 -98,-4z"/>
   <g id="_2143120940624">
    <path class="fil18" d="M4523 4351c114,-9 57,-8 170,-4 -113,9 -56,7 -170,4z"/>
   </g>
   <line class="fil21" x1="4523" y1="4351" x2="4693" y2= "4347" />
   <g id="_2143120940816">
    <path class="fil18" d="M4523 4405c114,-9 57,-8 170,-4 -113,9 -56,7 -170,4z"/>
   </g>
   <line class="fil21" x1="4523" y1="4405" x2="4693" y2= "4401" />
   <g id="_2143120939536">
    <path class="fil18" d="M4427 4487c177,-18 89,-12 267,-17 -177,17 -89,12 -267,17z"/>
   </g>
   <line class="fil21" x1="4427" y1="4487" x2="4694" y2= "4470" />
   <path class="fil17" d="M2389 3397l0 0c20,0 36,16 36,35l0 63 -71 0 0 -63c0,-19 16,-35 35,-35z"/>
   <path class="fil41" d="M2405 3368l29 0 0 11 -29 0 0 4c0,8 -6,14 -14,14l-4 0c-7,0 -13,-6 -13,-14l0 -22c0,-7 6,-13 13,-13l4 0c8,0 14,6 14,13l0 7z"/>
   <path class="fil19" d="M2384 3398c11,3 20,18 20,35l0 63 -49 0 0 -63 0 -1c1,-17 13,-31 29,-34z"/>
   <path class="fil19" d="M2307 3467l0 156c2,0 161,29 152,-3 197,11 263,-62 265,-152 -154,0 -301,0 -417,-1z"/>
   <path class="fil18" d="M2307 3467l0 248c46,0 115,-22 154,-94 -46,-1 -153,-24 -154,-154z"/>
   <polyline class="fil21" points="4010,3804 4459,3821 4398,3875 4010,3858 "/>
   <polygon class="fil22" points="5137,2964 4431,3090 4431,3446 5134,3426 "/>
   <polygon class="fil18" points="5095,2996 4462,3113 4462,3410 5096,3393 "/>
   <g id="_2143120934096">
    <path class="fil17" d="M4470 3328c22,-53 76,-155 102,-56 55,-114 84,-172 142,-25 7,18 8,26 11,45 2,-1 4,-2 5,-3 -2,3 -5,5 -5,4 -28,-85 -24,-52 -68,-126 -15,12 -51,77 -55,85 -11,19 -19,34 -25,44l0 1 0 0c-32,58 -6,2 -34,-26 -7,36 -27,31 -18,60l-55 -3zm260 -39c1,-2 2,-3 2,-5 0,1 -1,3 -2,5zm53 -59c2,2 5,5 9,9 -3,-5 -6,-8 -9,-9zm9 9c13,14 33,39 64,74 1,0 1,1 2,1 8,-27 70,-164 122,-79 9,14 35,73 65,66l2 -3 0 55c-119,-46 -77,-182 -134,-96 -97,145 -99,20 -121,-18zm-136 -73l-1 -1c0,0 1,0 1,1z"/>
   </g>
   <path class="fil21" d="M4498 3329c2,-46 32,-31 32,-84 49,16 25,108 52,23 2,-6 71,-121 78,-105 22,52 52,55 65,130 24,-10 15,-155 125,22 27,43 76,-193 127,-52 9,25 41,63 70,63"/>
   <g id="_2143120929296">
    <path class="fil20" d="M5369 3605c-7,-111 56,-130 143,-176 -39,35 -133,122 -143,176z"/>
   </g>
   <path class="fil21" d="M5369 3605c-3,-95 140,-170 143,-176"/>
   <g id="_2143120926416">
    <path class="fil20" d="M5343 3590c-36,-185 -35,-93 -3,-278 36,184 34,91 3,278z"/>
   </g>
   <path class="fil21" d="M5343 3590c0,-92 -3,-188 -3,-278"/>
   <g id="_2143120923600">
    <path class="fil20" d="M5303 3583c-8,-20 -64,-136 -92,-147 83,4 90,87 92,147z"/>
   </g>
   <path class="fil21" d="M5303 3583c0,-46 -51,-144 -92,-147"/>
   <g id="_2143120925040">
    <path class="fil20" d="M5279 3594c-15,-14 -109,-90 -132,-97 102,-1 93,20 132,97z"/>
   </g>
   <path class="fil21" d="M5279 3594c-33,-46 -67,-87 -124,-96l-8 -1"/>
   <g id="_2143120925392">
    <path class="fil33" d="M2572 3418c14,-32 8,-14 14,-54 9,40 2,22 19,57 -1,9 -9,16 -18,15 -9,-1 -16,-9 -15,-18z"/>
   </g>
   <path class="fil21" d="M2589 3419c0,-11 -4,-33 -3,-55"/>
   <path class="fil18" d="M4063 5170l-3 0 -4 0 0 -1c-27,-1 -53,-8 -56,-13l-44 -266 104 0 104 0 -44 266c-4,5 -29,12 -57,13l0 1z"/>
   <g id="_2143120921680">
    <path class="fil22" d="M3965 4909c14,-37 31,-59 52,-29 10,-16 24,-32 38,-26 17,-43 81,-43 74,18 -1,9 -2,17 -4,24 13,2 17,3 21,15 -4,-10 -12,-14 -22,-14 -18,55 -66,-6 -14,-3 28,-38 -29,-120 -32,13l-1 0c0,3 -1,5 -2,8 -10,4 -5,4 -15,0 -1,-3 -2,-5 -3,-8l0 0 -1 -1c-3,-10 -4,-18 -5,-26 -5,-20 -1,51 -36,44 -5,7 -13,12 -23,12 -15,0 -27,-12 -27,-27zm39 -7c0,1 -1,3 -2,4 0,0 1,-1 2,-4zm101 -3c-7,2 -12,5 -14,8 5,-2 10,-5 14,-8zm-115 10c-2,-1 -3,-3 -5,-4l0 0c1,2 3,3 5,4z"/>
   </g>
   <path class="fil21" d="M3992 4909c0,-61 29,40 28,-10 -1,-30 47,-48 47,8 0,-146 73,-49 55,-28 -59,70 -37,-6 21,24 1,0 2,6 3,8"/>
   <path class="fil17" d="M4063 5170l-3 0 -2 0 24 -280 82 0 -44 266c-4,5 -29,12 -57,13l0 1z"/>
   <g id="_2143120919760">
    <path class="fil22" d="M4209 5107c-11,1 -19,2 -25,4 4,2 9,6 14,11 6,5 10,9 13,13 13,-3 29,-6 37,1 1,-7 2,-18 2,-22 -7,-3 -46,-6 -40,7 -1,-1 -2,-3 -1,-5 22,-53 90,47 30,31 -103,70 -106,-45 -64,-39 8,-1 19,-2 34,-1zm37 35c0,0 0,0 0,0l0 0c0,0 0,0 0,0zm4 -28c0,0 0,1 0,1 0,0 0,-1 0,-1zm-13 33c-1,0 -2,-1 -3,-1 1,1 2,1 3,1z"/>
   </g>
   <path class="fil21" d="M4209 5107c-120,0 44,71 -17,23 -44,-34 -33,57 44,9 6,-4 21,34 18,-26 -1,-7 -53,-5 -44,8"/>
   <path class="fil44" d="M1240 6015l771 -148c14,-2 26,-9 34,-19 9,-10 14,-23 14,-37l32 -2168c1,-30 13,-57 33,-76 20,-20 47,-32 77,-32l106 0 0 51 -106 0c-16,0 -31,7 -41,17 -11,11 -18,25 -18,41l-32 2167c0,27 -10,51 -25,70 -16,18 -38,32 -64,37l-772 147 -9 -50z"/>
   <polygon class="fil44" points="2353,4927 2098,4927 2098,4876 2353,4876 "/>
   <polygon class="fil44" points="2070,5842 2323,5914 2322,5967 2056,5891 "/>
   <g>
    <polygon class="fil45" points="2305,3517 2181,3517 2181,3488 2305,3488 "/>
   </g>
   <polygon class="fil31" points="3909,3936 4313,3919 4667,3930 4667,3949 3909,3954 "/>
   <polygon class="fil18" points="3909,3954 4094,3946 4313,3937 4667,3949 4230,3968 "/>
   <polygon class="fil17" points="4667,3930 4667,3949 4313,3937 4313,3919 "/>
   <g>
    <path class="fil45" d="M2635 6244l692 -135 6 28 -692 136 -8 -1 2 -28zm6 29l-4 1 -4 -2 8 1zm-573 -226l575 198 -10 27 -574 -197 9 -28z"/>
   </g>
   <g>
    <path class="fil45" d="M2151 6039l30 -2540 29 0 -29 2540 -12 14 -18 -14zm30 0l-1 12 -11 2 12 -14zm-498 92l480 -106 6 28 -479 106 -7 -28z"/>
   </g>
   <g>
    <polygon class="fil45" points="2320,5888 2170,5852 2177,5823 2327,5860 "/>
   </g>
   <g>
    <polygon class="fil45" points="2287,4672 2181,4672 2181,4643 2287,4643 "/>
   </g>
   <g>
    <path class="fil44" d="M4197 5287l0 163 -29 0 0 -163 29 0zm0 -1319l0 701 -29 0 0 -701 29 0z"/>
   </g>
   <g>
    <path class="fil44" d="M7039 5484l-211 -38 2 -11 211 39 4 5 -6 5zm6 -5l0 7 -6 -2 6 -5zm0 -463l0 463 -11 0 0 -463 5 -6 6 6zm-6 -6l6 -1 0 7 -6 -6zm-995 134l995 -134 2 11 -996 134 -6 -5 5 -6zm1 11l-6 1 0 -6 6 5zm5 -3153l0 3148 -11 0 0 -3148 11 0z"/>
   </g>
   <g>
    <path class="fil44" d="M5461 1991l583 3 0 11 -583 -3 -6 -5 6 -6zm0 11l-6 0 0 -5 6 5zm5 -446l0 441 -11 0 0 -441 4 -5 7 5zm-7 -5l7 -2 0 7 -7 -5zm-1190 379l1190 -379 3 10 -1190 380 -7 -5 4 -6zm-4 6l0 -4 4 -2 -4 6zm4 359l-4 -359 11 -1 4 360 -5 5 -6 -5zm11 0l0 5 -5 0 5 -5zm-68 -5l62 -1 1 11 -63 1 0 -11z"/>
   </g>
   <g>
    <path class="fil44" d="M4851 4579l1194 74 -1 11 -1194 -75 0 -10 1 0zm-1 0l0 -1 1 1 -1 0zm-214 11l214 -11 1 10 -215 12 0 -11z"/>
   </g>
   <g>
    <path class="fil44" d="M5451 5068l3 -446 11 0 -3 446 -5 5 -6 -5zm11 0l0 5 -5 0 5 -5zm-198 -5l193 -1 0 11 -193 1 0 -11z"/>
   </g>
   <g>
    <polygon class="fil44" points="4483,2979 6043,2702 6045,2713 4484,2990 "/>
   </g>
   <g>
    <path class="fil44" d="M4624 5320l1420 -176 1 11 -1420 176 -1 0 0 -11zm1 11l-1 0 0 0 1 0zm-1766 -258l1766 247 -1 11 -1766 -247 -5 -6 6 -5zm-1 11l-5 -1 0 -5 5 6zm35 -2304l-29 2298 -11 0 29 -2298 5 -5 6 5zm-6 -5l6 -2 0 7 -6 -5zm-685 164l685 -164 2 10 -684 165 -3 -11z"/>
   </g>
   <g>
    <polygon class="fil44" points="2229,3946 2873,3924 2873,3935 2229,3957 "/>
   </g>
   <g>
    <polygon class="fil44" points="2212,4978 2859,5073 2858,5084 2210,4989 "/>
   </g>
   <g>
    <path class="fil44" d="M5561 5362l494 33 -1 18 -494 -33 -9 -9 10 -9zm-1 18l-9 0 0 -9 9 9zm10 -141l0 132 -19 0 0 -132 19 0zm-3 -1304l3 1142 -18 0 -3 -1142 10 -9 8 9zm-8 -9l8 0 0 9 -8 -9zm-833 -24l833 24 -1 18 -832 -24 0 -18z"/>
   </g>
   <g>
    <path class="fil46" d="M4071 2990l-1128 -157 5 -29 1127 157 0 29 -4 0zm4 0l-2 0 -2 0 4 0zm406 -51l-406 51 -4 -29 406 -51 4 0 0 29zm-1028 -208l1028 179 -5 29 -1028 -179 0 -29 5 0zm417 -37l-417 66 -5 -29 417 -66 5 0 0 29zm-5 -29l3 -1 2 1 -5 0zm897 182l-897 -153 5 -29 897 154 0 28 -5 0zm5 0l-3 1 -2 -1 5 0zm314 -51l-314 51 -5 -28 315 -52 5 0 -1 29zm-917 -230l918 201 -6 29 -919 -201 1 -29 6 0zm380 -44l-381 73 -5 -29 380 -73 6 0 0 29zm-6 -29l3 -1 3 1 -6 0zm963 234l-963 -205 6 -29 963 205 -6 29z"/>
   </g>
   <g>
    <polygon class="fil46" points="3037,4579 2935,4579 2935,4549 3037,4549 "/>
   </g>
   <g>
    <polygon class="fil46" points="3037,3456 2935,3456 2935,3427 3037,3427 "/>
   </g>
   <g>
    <path class="fil46" d="M2922 6087l415 -69 5 29 -416 69 -17 -15 13 -14zm4 29l-17 2 0 -17 17 15zm34 -3312l-21 3297 -30 0 22 -3297 29 0z"/>
   </g>
   <path class="fil19" d="M5261 5085c36,0 68,2 93,5l51 0 0 17c0,12 -65,22 -144,22 -79,0 -144,-10 -144,-22l0 -17 51 0c25,-3 57,-5 93,-5z"/>
   <ellipse class="fil18" cx="5261" cy="5090" rx="144" ry="22"/>
   <rect class="fil39" x="5245" y="4428" width="32.9377" height="662.414"/>
   <rect class="fil27" x="5245" y="4428" width="16.4688" height="662.414"/>
   <path class="fil17" d="M5214 4081l-74 379c4,16 75,34 119,36l0 0 2 0 2 0 0 0c44,-2 115,-20 119,-36l-73 -377c0,-14 -97,-13 -95,-2z"/>
   <path class="fil18" d="M5214 4081l-74 379c4,16 75,34 119,36l25 -1 -26 -422c-23,0 -45,3 -44,8z"/>
  </g>
 </g>
</svg>
