<?xml version="1.0" encoding="UTF-8"?>
<!DOCTYPE svg PUBLIC "-//W3C//DTD SVG 1.1//EN" "http://www.w3.org/Graphics/SVG/1.1/DTD/svg11.dtd">
<!-- Creator: CorelDRAW X8 -->
<svg xmlns="http://www.w3.org/2000/svg" xml:space="preserve" width="795px" height="690px" version="1.1" style="shape-rendering:geometricPrecision; text-rendering:geometricPrecision; image-rendering:optimizeQuality; fill-rule:evenodd; clip-rule:evenodd"
viewBox="0 0 7950 6900"
 xmlns:xlink="http://www.w3.org/1999/xlink">
 <defs>
  <style type="text/css">
   <![CDATA[
    .fil0 {fill:#DB0000;fill-rule:nonzero}
   ]]>
  </style>
 </defs>
 <g id="Слой_x0020_1">
  <metadata id="CorelCorpID_0Corel-Layer"/>
  <g id="_2106730221120">
   <g>
    <path class="fil0" d="M4071 2991l-1128 -158 5 -29 1127 157 0 30 -4 0zm4 0l-2 0 -2 0 4 0zm406 -52l-406 52 -4 -30 406 -51 5 0 -1 29zm-1028 -209l1029 180 -6 29 -1028 -179 0 -30 5 0zm417 -36l-417 66 -5 -30 417 -66 5 1 0 29zm-5 -30l3 0 2 1 -5 -1zm897 184l-897 -154 5 -29 897 153 0 30 -5 0zm5 0l-3 0 -2 0 5 0zm315 -51l-315 51 -5 -30 315 -51 5 0 0 30zm-918 -231l918 201 -6 29 -919 -201 1 -29 6 0zm380 -44l-381 73 -5 -29 380 -73 6 0 0 29zm-6 -29l3 -1 3 1 -6 0zm963 234l-963 -205 6 -29 963 205 -6 29z"/>
   </g>
   <g>
    <polygon class="fil0" points="3037,4579 2935,4579 2935,4549 3037,4549 "/>
   </g>
   <g>
    <polygon class="fil0" points="3037,3456 2935,3456 2935,3426 3037,3426 "/>
   </g>
   <g>
    <path class="fil0" d="M2922 6086l415 -68 5 29 -416 69 -17 -15 13 -15zm4 30l-17 3 0 -18 17 15zm35 -3312l-22 3297 -30 0 22 -3297 30 0z"/>
   </g>
  </g>
 </g>
</svg>
