<?xml version="1.0" encoding="UTF-8"?>
<!DOCTYPE svg PUBLIC "-//W3C//DTD SVG 1.1//EN" "http://www.w3.org/Graphics/SVG/1.1/DTD/svg11.dtd">
<!-- Creator: CorelDRAW X8 -->
<svg xmlns="http://www.w3.org/2000/svg" xml:space="preserve" width="64px" height="81px" version="1.1" style="shape-rendering:geometricPrecision; text-rendering:geometricPrecision; image-rendering:optimizeQuality; fill-rule:evenodd; clip-rule:evenodd"
viewBox="0 0 640 810"
 xmlns:xlink="http://www.w3.org/1999/xlink">
 <defs>
  <style type="text/css">
   <![CDATA[
    .fil0 {fill:white;fill-rule:nonzero}
   ]]>
  </style>
 </defs>
 <g id="Слой_x0020_1">
  <metadata id="CorelCorpID_0Corel-Layer"/>
  <g id="_2143122738480">
   <path class="fil0" d="M503 304c30,-33 48,-77 48,-125 0,-98 -78,-179 -174,-179l-377 0 0 658 638 0 0 -180c0,-85 -58,-156 -135,-174zm77 294l-521 0c7,-73 42,-139 99,-185l108 -81c43,-28 71,-72 79,-123 4,-20 4,-39 0,-59l-200 0 0 59 141 0c-7,30 -25,56 -51,72l-113 84c-25,20 -46,44 -64,70l0 -375c106,0 213,0 319,0 64,0 116,54 116,119 0,42 -21,80 -55,102l-24 18 0 0 -89 66c-47,38 -81,88 -102,143l270 0 0 -60 -169 0c11,-13 23,-25 37,-35l72 -54 31 0c64,0 116,53 116,119l0 120z"/>
   <path class="fil0" d="M3 735l0 17c9,-7 19,-10 28,-10 9,0 14,3 14,9 0,8 -7,11 -16,16 -13,7 -29,14 -29,33l0 8 65 0 0 -15 -43 0c0,-5 9,-9 19,-15 11,-6 23,-14 23,-28 0,-16 -14,-23 -31,-23 -11,0 -21,2 -30,8z"/>
   <path id="1" class="fil0" d="M86 726l0 82 38 0c16,0 35,-4 35,-23 0,-12 -8,-18 -17,-20 8,-3 14,-9 14,-18 0,-14 -12,-21 -31,-21l-39 0zm54 57c0,9 -7,11 -16,11l-19 0 0 -21 20 0c8,0 15,2 15,10zm-3 -33c0,6 -5,9 -13,9l-19 0 0 -19 18 0c9,0 14,3 14,10z"/>
   <polygon id="2" class="fil0" points="221,808 221,742 264,742 264,726 202,726 202,808 "/>
   <path id="3" class="fil0" d="M280 726l0 82 20 0 0 -27 14 0c22,0 38,-6 38,-27 0,-22 -16,-28 -38,-28l-34 0zm53 28c0,9 -8,12 -18,12l-15 0 0 -24 15 0c10,0 18,2 18,12z"/>
   <path id="4" class="fil0" d="M413 789l32 -63 -21 0 -19 42 -23 -42 -22 0 36 58 -2 3c-3,6 -7,7 -13,7 -4,0 -8,0 -11,-1l0 15c5,1 10,2 14,2 11,0 21,-5 29,-21z"/>
   <polygon id="5" class="fil0" points="479,808 479,742 519,742 519,808 538,808 538,726 460,726 460,808 "/>
   <polygon id="6" class="fil0" points="582,808 582,742 621,742 621,808 640,808 640,726 562,726 562,808 "/>
  </g>
 </g>
</svg>
