<?xml version="1.0" encoding="UTF-8"?>
<!DOCTYPE svg PUBLIC "-//W3C//DTD SVG 1.1//EN" "http://www.w3.org/Graphics/SVG/1.1/DTD/svg11.dtd">
<!-- Creator: CorelDRAW X8 -->
<svg xmlns="http://www.w3.org/2000/svg" xml:space="preserve" width="1000px" height="1000px" version="1.1" style="shape-rendering:geometricPrecision; text-rendering:geometricPrecision; image-rendering:optimizeQuality; fill-rule:evenodd; clip-rule:evenodd"
viewBox="0 0 10000 10000"
 xmlns:xlink="http://www.w3.org/1999/xlink">
 <defs>
  <style type="text/css">
   <![CDATA[
    .str1 {stroke:#2C682C;stroke-width:19.9961}
    .str0 {stroke:#2C682C;stroke-width:20.8347}
    .str2 {stroke:#2C682C;stroke-width:10.9252}
    .fil1 {fill:none}
    .fil2 {fill:#2C682C;fill-rule:nonzero}
    .fil0 {fill:white;fill-rule:nonzero}
   ]]>
  </style>
 </defs>
 <g id="Слой_x0020_1">
  <metadata id="CorelCorpID_0Corel-Layer"/>
  <path class="fil0" d="M234 1436l30 0c7,0 12,-6 12,-12l0 -48c0,-6 -5,-12 -12,-12l-42 0c0,0 -1,0 -2,0 -8,0 -35,2 -57,21 -24,22 -22,48 -21,54l0 31 -30 0c-7,0 -12,5 -12,12l0 51c0,7 5,12 12,12l29 0 0 135c0,7 5,12 11,12l60 0c7,0 12,-5 12,-12l0 -134 34 0c6,0 11,-5 12,-11l6 -52c1,-3 0,-7 -3,-9 -2,-2 -5,-4 -9,-4l-40 0 0 -26c0,-6 2,-8 10,-8zm-16 47l0 0 45 0 -6 49 -39 0c-4,0 -7,3 -7,7l0 140 -57 0 0 -141c0,-3 -3,-6 -7,-6l-34 0 0 -49 36 0c4,0 7,-3 7,-6l0 -39c0,0 0,0 0,-1 -1,-4 -4,-24 16,-42 18,-16 42,-18 48,-18 1,0 2,0 2,0 0,0 0,0 0,0l41 0 0 45 -29 0c-15,0 -23,8 -23,22l0 33c0,3 3,6 7,6z"/>
  <path class="fil0" d="M905 1592c-7,-8 -15,-16 -23,-23 -2,-2 -5,-5 -8,-8l0 0c-4,-3 -5,-6 -6,-8 0,-1 1,-4 4,-8 5,-6 9,-12 14,-18 4,-5 8,-11 12,-16l1 -1c7,-11 15,-21 20,-35 1,-4 2,-9 -1,-14 -3,-5 -9,-6 -13,-7 -2,0 -3,0 -5,0l-50 -1c-9,0 -15,4 -18,12 -2,7 -5,14 -9,22 -7,13 -16,29 -28,42l-1 1c0,1 -2,2 -3,3 -1,-1 -3,-6 -2,-9 0,0 0,0 0,0l0 -57c0,0 -1,0 -1,-1 -1,-8 -3,-16 -16,-18 0,0 -1,0 -1,0l-52 0c-10,0 -15,4 -19,9 -1,1 -4,5 -3,9 2,5 7,6 8,6 6,1 9,4 10,10 2,12 2,25 1,40 -1,4 -1,7 -3,10 0,0 0,1 0,1 -1,0 -1,0 -2,-1 -4,-2 -7,-7 -10,-11 -11,-16 -21,-34 -29,-54 -4,-9 -10,-13 -19,-13 -16,-1 -30,-1 -45,0 -6,0 -11,2 -14,6 -2,4 -2,9 1,15 19,44 38,76 58,104 15,19 29,33 46,43 18,10 38,14 61,14 3,0 6,0 8,0 15,0 21,-6 21,-20 1,-7 1,-13 4,-18 1,-2 2,-3 3,-3 0,0 2,1 3,1 3,2 5,5 7,7 2,2 4,4 6,6 4,5 8,9 13,14 10,10 21,14 34,13l45 0 0 0c1,0 1,0 1,0 5,0 10,-3 12,-8 3,-5 3,-12 0,-19 -3,-6 -8,-12 -12,-17zm1 30l0 0c-1,1 -2,1 -2,1l-45 0c0,0 0,0 0,0 -1,0 -1,0 -1,0 -9,1 -17,-2 -24,-9 -4,-5 -8,-9 -12,-14 -2,-2 -4,-4 -6,-6 -3,-3 -6,-6 -10,-8 -6,-4 -10,-4 -13,-3 -4,0 -8,3 -11,9 -4,7 -5,16 -6,24 0,4 -1,6 -1,6 -1,0 -2,1 -7,1 -24,2 -45,-3 -62,-13 -15,-8 -29,-21 -42,-39 -20,-27 -38,-58 -58,-101 0,-2 -1,-2 -1,-3 1,0 2,0 4,0 14,-1 28,-1 44,0 2,0 5,0 7,5 9,21 19,40 31,57 3,4 7,10 13,14 5,4 10,3 12,3 3,-1 7,-3 10,-9 1,-4 2,-9 3,-14 1,-16 1,-30 -1,-43 -2,-9 -6,-15 -14,-19 2,0 3,-1 5,-1l51 0c3,1 4,2 4,2 1,1 1,4 1,6l1 56c-1,6 2,18 11,21 0,0 0,0 0,0 9,3 14,-3 17,-6l0 -1c14,-14 23,-31 31,-46 3,-7 7,-15 9,-22 2,-3 3,-4 6,-4 0,0 0,0 0,0l50 0c1,0 2,0 3,1 2,0 3,0 4,1 0,0 0,1 -1,3 -4,12 -11,21 -18,31l-1 2c-4,5 -8,10 -12,15 -4,6 -9,12 -13,18 -10,13 -9,22 3,34 3,2 6,5 8,8 8,7 16,14 22,22 4,4 8,9 11,14 1,3 1,6 0,7z"/>
  <g id="_1597355344272">
   <rect class="fil1 str0" x="263" y="612" width="809" height="308"/>
   <line class="fil1 str0" x1="538" y1="612" x2="538" y2= "920" />
   <line class="fil1 str0" x1="667" y1="612" x2="667" y2= "920" />
   <line class="fil1 str0" x1="796" y1="612" x2="796" y2= "920" />
   <polyline class="fil1 str0" points="1138,227 1138,551 197,551 197,227 "/>
   <rect class="fil1 str0" x="197" y="100" width="948" height="118"/>
   <line class="fil1 str0" x1="263" y1="612" x2="197" y2= "551" />
   <line class="fil1 str0" x1="1072" y1="612" x2="1138" y2= "551" />
   <line class="fil1 str0" x1="858" y1="782" x2="1008" y2= "695" />
   <line class="fil1 str0" x1="907" y1="852" x2="1010" y2= "792" />
   <line class="fil1 str0" x1="320" y1="782" x2="470" y2= "695" />
   <line class="fil1 str0" x1="369" y1="852" x2="472" y2= "792" />
   <rect class="fil1 str0" x="271" y="218" width="792" height="283"/>
   <line class="fil1 str0" x1="100" y1="920" x2="258" y2= "920" />
   <line class="fil1 str0" x1="1076" y1="920" x2="1234" y2= "920" />
   <polygon class="fil1 str1" points="1857,294 2730,294 2730,198 2294,101 1857,192 "/>
   <line class="fil1 str0" x1="1724" y1="919" x2="2863" y2= "919" />
   <g>
    <path class="fil2" d="M2612 575l0 270 -20 0 0 -270 20 0zm108 270l0 -270 20 0 0 270 -20 0z"/>
   </g>
   <g>
    <path class="fil2" d="M2799 919l0 -11 20 0 0 11 -10 7 -10 -7zm20 0l0 7 -10 0 10 -7zm-295 -7l285 0 0 14 -285 0 -10 -7 10 -7zm0 14l-10 0 0 -7 10 7zm10 -18l0 11 -20 0 0 -11 20 0z"/>
   </g>
   <line class="fil1 str0" x1="2666" y1="571" x2="2666" y2= "791" />
   <path class="fil1 str0" d="M2585 495l160 0c11,0 21,10 21,22l0 31c0,12 -10,22 -21,22l-160 0c-12,0 -21,-10 -21,-22l0 -31c0,-12 9,-22 21,-22z"/>
   <g>
    <path class="fil2" d="M2612 294l0 205 -20 0 0 -205 20 0zm108 205l0 -205 20 0 0 205 -20 0z"/>
   </g>
   <line class="fil1 str0" x1="2666" y1="346" x2="2666" y2= "494" />
   <polyline class="fil1 str0" points="2539,917 2602,845 2730,845 2794,917 "/>
   <g>
    <path class="fil2" d="M1867 575l0 270 -20 0 0 -270 20 0zm108 270l0 -270 20 0 0 270 -20 0z"/>
   </g>
   <g>
    <path class="fil2" d="M2053 919l0 -11 20 0 0 11 -10 7 -10 -7zm20 0l0 7 -10 0 10 -7zm-294 -7l284 0 0 14 -284 0 -10 -7 10 -7zm0 14l-10 0 0 -7 10 7zm10 -18l0 11 -20 0 0 -11 20 0z"/>
   </g>
   <line class="fil1 str0" x1="1921" y1="571" x2="1921" y2= "791" />
   <path class="fil1 str0" d="M1840 495l159 0c12,0 21,10 21,22l0 31c0,12 -9,22 -21,22l-159 0c-12,0 -22,-10 -22,-22l0 -31c0,-12 10,-22 22,-22z"/>
   <g>
    <path class="fil2" d="M1867 294l0 205 -20 0 0 -205 20 0zm108 205l0 -205 20 0 0 205 -20 0z"/>
   </g>
   <line class="fil1 str0" x1="1921" y1="346" x2="1921" y2= "494" />
   <polyline class="fil1 str0" points="1793,917 1857,845 1985,845 2049,917 "/>
   <circle class="fil1 str0" cx="2366" cy="211" r="32"/>
   <circle class="fil1 str0" cx="2493" cy="216" r="27"/>
   <circle class="fil1 str0" cx="2222" cy="211" r="32"/>
   <circle class="fil1 str0" cx="2095" cy="216" r="27"/>
   <path class="fil1 str0" d="M3495 920l119 0 0 -158 -119 0 0 158zm119 -232l0 -173c0,-16 13,-30 30,-30l35 0 0 -119 -95 0c-49,1 -89,40 -89,89l0 233 119 0zm131 -203l50 0 0 -119 -50 0 0 119zm286 0l65 0 0 -121 -65 1 0 120zm130 0l36 0c16,0 30,14 30,30l0 173 118 0 0 -235c0,-25 -9,-46 -26,-63 -17,-18 -39,-26 -63,-26l-95 0 0 121zm66 277l0 158 118 0 0 -158 -118 0z"/>
   <path class="fil1 str0" d="M3471 688l153 0c16,0 30,13 30,29l0 15c0,17 -14,30 -30,30l-153 0c-17,0 -30,-13 -30,-30l0 -15c0,-16 13,-29 30,-29z"/>
   <path class="fil1 str0" d="M4209 688l154 0c16,0 29,13 29,29l0 15c0,17 -13,30 -29,30l-154 0c-16,0 -29,-13 -29,-30l0 -15c0,-16 13,-29 29,-29z"/>
   <path class="fil1 str0" d="M3745 358l0 135c0,15 -12,27 -27,27l-13 0c-14,0 -26,-12 -26,-27l0 -135c0,-14 12,-26 26,-26l13 0c15,0 27,12 27,26z"/>
   <path class="fil1 str0" d="M4161 358l0 135c0,15 -11,27 -26,27l-13 0c-14,0 -26,-12 -26,-27l0 -135c0,-14 12,-26 26,-26l13 0c15,0 26,12 26,26z"/>
   <path class="fil1 str0" d="M3825 332l176 0c16,0 30,13 30,30l0 128c0,16 -14,30 -30,30l-176 0c-17,0 -30,-14 -30,-30l0 -128c0,-17 13,-30 30,-30z"/>
   <path class="fil1 str0" d="M3851 337l0 -39c0,-11 9,-20 20,-20l89 0c11,0 20,9 20,20l0 39"/>
   <path class="fil1 str0" d="M3814 100l203 0c16,0 29,13 29,30l0 14c0,17 -13,30 -29,30l-203 0c-16,0 -30,-13 -30,-30l0 -14c0,-17 14,-30 30,-30z"/>
   <line class="fil1 str0" x1="3887" y1="174" x2="3887" y2= "278" />
   <line class="fil1 str0" x1="3943" y1="174" x2="3943" y2= "278" />
   <line class="fil1 str0" x1="3351" y1="920" x2="4490" y2= "920" />
   <line class="fil1 str0" x1="3842" y1="472" x2="3927" y2= "472" />
   <line class="fil1 str0" x1="3958" y1="472" x2="3984" y2= "472" />
   <path class="fil1 str0" d="M5528 101l32 0c12,0 21,10 21,22l0 417 -74 0 0 -417c0,-12 9,-22 21,-22z"/>
   <polyline class="fil1 str0" points="5507,199 5374,325 5507,325 "/>
   <line class="fil1 str0" x1="5378" y1="325" x2="5378" y2= "416" />
   <line class="fil1 str0" x1="5333" y1="379" x2="5424" y2= "379" />
   <line class="fil1 str0" x1="5333" y1="416" x2="5424" y2= "416" />
   <polyline class="fil1 str0" points="5507,414 5374,540 5507,540 "/>
   <line class="fil1 str0" x1="5378" y1="540" x2="5378" y2= "631" />
   <line class="fil1 str0" x1="5333" y1="594" x2="5424" y2= "594" />
   <line class="fil1 str0" x1="5333" y1="631" x2="5424" y2= "631" />
   <polyline class="fil1 str0" points="5587,199 5719,325 5587,325 "/>
   <line class="fil1 str0" x1="5715" y1="325" x2="5715" y2= "416" />
   <line class="fil1 str0" x1="5761" y1="379" x2="5670" y2= "379" />
   <line class="fil1 str0" x1="5761" y1="416" x2="5670" y2= "416" />
   <polyline class="fil1 str0" points="5587,414 5719,540 5587,540 "/>
   <line class="fil1 str0" x1="5715" y1="540" x2="5715" y2= "631" />
   <line class="fil1 str0" x1="5761" y1="594" x2="5670" y2= "594" />
   <line class="fil1 str0" x1="5761" y1="631" x2="5670" y2= "631" />
   <line class="fil1 str0" x1="5507" y1="321" x2="5587" y2= "325" />
   <rect class="fil1 str0" x="5504" y="540" width="80.6382" height="375.771"/>
   <line class="fil1 str0" x1="4977" y1="919" x2="6117" y2= "919" />
   <line class="fil1 str0" x1="5265" y1="598" x2="5107" y2= "470" />
   <line class="fil1 str0" x1="5265" y1="405" x2="5107" y2= "277" />
   <line class="fil1 str0" x1="5828" y1="598" x2="5987" y2= "470" />
   <line class="fil1 str0" x1="5828" y1="405" x2="5987" y2= "277" />
   <polyline class="fil1 str0" points="7322,852 7322,920 6772,920 6772,168 6850,168 "/>
   <polygon class="fil1 str0" points="6850,100 7279,100 7400,221 7400,852 6850,852 "/>
   <polyline class="fil1 str0" points="7400,221 7279,221 7279,100 "/>
   <path class="fil1 str0" d="M7041 273l-55 0c3,-22 64,-40 64,-76 0,-23 -20,-38 -34,-38 -13,0 -22,0 -22,0l-70 0 0 152 147 0 0 -45c0,0 -7,-31 -31,-31l-13 0"/>
   <path class="fil1 str0" d="M6924 295c9,-48 81,-67 73,-98l-40 0"/>
   <line class="fil1 str0" x1="6924" y1="500" x2="7325" y2= "500" />
   <line class="fil1 str0" x1="6924" y1="421" x2="7325" y2= "421" />
   <line class="fil1 str0" x1="6924" y1="657" x2="7325" y2= "657" />
   <line class="fil1 str0" x1="6924" y1="578" x2="7325" y2= "578" />
   <line class="fil1 str0" x1="7210" y1="772" x2="7326" y2= "772" />
   <line class="fil1 str0" x1="7229" y1="801" x2="7261" y2= "745" />
   <line class="fil1 str0" x1="7268" y1="801" x2="7314" y2= "723" />
   <path class="fil1 str0" d="M7477 206l35 0c8,0 15,10 15,21l0 496 -66 0 0 -496c0,-11 7,-21 16,-21z"/>
   <polyline class="fil1 str0" points="7461,723 7494,814 7527,723 "/>
   <line class="fil1 str0" x1="7461" y1="381" x2="7527" y2= "381" />
   <path class="fil1 str0" d="M7527 240c0,0 48,-22 48,47 0,69 0,165 0,165"/>
   <path class="fil0" d="M1481 1432l-29 0c-9,0 -16,7 -16,16l0 30c0,9 7,16 16,16l29 0c8,0 15,-7 15,-16l0 -30c0,-9 -7,-16 -15,-16zm3 46l0 0c0,2 -1,4 -3,4l-29 0c-2,0 -4,-2 -4,-4l0 -30c0,-2 2,-3 4,-3l29 0c2,0 3,1 3,3l0 30z"/>
  </g>
  <path class="fil0" d="M1465 1401l-167 0c-34,0 -62,29 -62,64l0 41 0 13 0 110c0,35 28,63 62,63l167 0c34,0 62,-28 62,-63l0 -110 0 -13 0 -41c0,-35 -28,-64 -62,-64zm50 228l0 0c0,28 -23,51 -50,51l-167 0c-28,0 -50,-23 -50,-51l0 -110 74 0c-16,16 -26,37 -26,62 0,47 38,86 85,86 47,0 85,-39 85,-86 0,-25 -10,-46 -25,-62l74 0 0 110zm-61 -48l0 0c0,41 -33,74 -73,74 -40,0 -72,-33 -72,-74 0,-41 32,-75 72,-75 40,0 73,34 73,75zm-29 -75l0 0c-13,-7 -28,-12 -44,-12 -16,0 -30,5 -43,12l-90 0 0 -41c0,-29 22,-51 50,-51l167 0c27,0 50,22 50,51l0 41 -90 0z"/>
  <path class="fil0" d="M1327 1581c0,30 24,55 54,55 30,0 55,-25 55,-55 0,-31 -25,-56 -55,-56 -30,0 -54,25 -54,56zm97 0l0 0c0,24 -19,43 -43,43 -23,0 -42,-19 -42,-43 0,-24 19,-44 42,-44 24,0 43,20 43,44z"/>
  <g>
  </g>
  <g>
  </g>
  <g>
  </g>
  <g>
  </g>
  <g>
  </g>
  <g>
  </g>
  <g>
  </g>
  <g>
  </g>
  <g>
  </g>
  <g>
  </g>
  <g>
  </g>
  <g>
  </g>
  <g>
  </g>
  <g>
  </g>
  <g>
  </g>
  <g>
   <g>
    <g>
     <path class="fil2" d="M284 3369l-174 0 0 -11 174 0 4 2 -4 9zm0 -11l2 0 2 2 -4 -2zm71 84l-75 -75 8 -7 75 74 1 4 -9 4zm8 -8l1 2 0 2 -1 -4zm-10 232l0 -228 11 0 0 228 0 0 -11 0zm-5 16l0 -11 0 0 1 0 0 0 0 0 0 0 1 -1 0 0 0 0 0 0 0 0 1 0 0 0 0 0 0 0 1 -1 0 0 0 0 0 0 0 0 0 0 1 -1 0 0 0 0 0 0 0 0 0 -1 0 0 0 0 0 0 0 -1 0 0 0 0 0 0 11 0 0 1 0 0 0 1 0 1 0 1 0 0 -1 1 0 1 0 1 -1 0 0 1 0 1 -1 0 0 1 -1 0 0 1 -1 0 -1 1 0 0 -1 1 0 0 -1 1 -1 0 0 0 -1 1 -1 0 -1 0 0 0 -1 0 -1 0 -1 1 -1 0 0 0zm-238 -11l238 0 0 11 -238 0 0 0 0 -11zm-15 -5l10 0 0 0 0 0 0 0 1 0 0 1 0 0 0 0 0 0 0 1 0 0 0 0 0 0 0 0 0 1 1 0 0 0 0 0 0 0 0 0 0 1 1 0 0 0 0 0 0 0 0 0 1 0 0 0 0 0 0 1 1 0 0 0 0 0 0 0 0 11 0 0 -1 -1 -1 0 -1 0 -1 0 0 0 -1 0 -1 -1 -1 0 0 0 -1 -1 0 0 -1 -1 -1 0 0 -1 -1 0 0 -1 -1 0 0 -1 -1 -1 0 0 -1 -1 0 0 0 -1 0 -1 -1 -1 0 0 0 -1 0 -1 0 -1 0 0 0 -1 0 0zm10 -292l0 292 -10 0 0 -292 0 0 10 0zm5 -16l0 11 0 0 0 0 0 0 0 0 -1 0 0 0 0 0 0 0 -1 0 0 0 0 1 0 0 0 0 -1 0 0 0 0 0 0 0 0 1 0 0 -1 0 0 0 0 0 0 1 0 0 0 0 0 0 0 0 0 1 0 0 0 0 -1 0 0 1 0 0 -10 0 0 -1 0 -1 0 0 0 -1 0 -1 0 -1 1 -1 0 0 0 -1 0 -1 1 0 0 -1 1 -1 0 0 1 -1 0 0 1 -1 0 0 1 -1 1 0 0 -1 1 0 0 0 1 -1 1 0 1 0 0 0 1 -1 1 0 1 0 1 0 0 0 0 0z"/>
    </g>
    <g>
     <path class="fil2" d="M267 3455l0 -99 11 0 0 99 -5 6 -6 -6zm6 6l-6 0 0 -6 6 6zm92 0l-92 0 0 -11 92 0 0 11z"/>
    </g>
    <g>
     <path class="fil2" d="M150 3408l0 57 -11 0 0 -57 6 -5 5 5zm-11 0l0 -5 6 0 -6 5zm134 6l-128 0 0 -11 128 0 0 11z"/>
    </g>
    <g>
     <polygon class="fil2" points="224,3626 224,3472 235,3472 235,3626 "/>
    </g>
    <g>
     <path class="fil2" d="M226 3623l-48 -48 7 -8 48 48 0 8 -7 0zm7 0l-3 4 -4 -4 7 0zm48 -48l-48 48 -7 -8 47 -48 8 8z"/>
    </g>
   </g>
   <g>
    <path class="fil1 str2" d="M655 3394l295 0c5,0 10,4 10,10l0 224c0,6 -5,11 -10,11l-295 0c-6,0 -10,-5 -10,-11l0 -224c0,-6 4,-10 10,-10z"/>
    <line class="fil1 str2" x1="706" y1="3394" x2="706" y2= "3639" />
    <line class="fil1 str2" x1="643" y1="3455" x2="706" y2= "3455" />
    <line class="fil1 str2" x1="643" y1="3517" x2="706" y2= "3517" />
    <line class="fil1 str2" x1="643" y1="3577" x2="706" y2= "3577" />
    <g>
     <polygon class="fil2" points="904,3639 893,3639 893,3394 904,3394 "/>
    </g>
    <g>
     <polygon class="fil2" points="898,3461 898,3450 962,3450 962,3461 "/>
    </g>
    <g>
     <polygon class="fil2" points="898,3522 898,3511 962,3511 962,3522 "/>
    </g>
    <g>
     <polygon class="fil2" points="898,3582 898,3571 962,3571 962,3582 "/>
    </g>
    <g>
     <path class="fil2" d="M800 3528l28 -17 5 10 -28 16 -5 -9 0 0zm5 9c-2,2 -6,1 -7,-2 -2,-3 -1,-6 2,-7l5 9zm-33 7l28 -16 5 9 -28 16 -8 -4 3 -5zm5 9c-3,2 -6,1 -7,-2 -2,-2 -1,-6 2,-7l5 9zm3 -37l0 33 -11 0 0 -33 0 0 11 0zm-11 0c0,-3 2,-5 5,-5 3,0 6,2 6,5l-11 0zm11 -32l0 32 -11 0 0 -32 8 -5 3 5zm-11 0c0,-3 2,-6 5,-6 3,0 6,3 6,6l-11 0zm31 21l-28 -17 5 -9 28 16 -5 10 0 0zm5 -10c3,2 4,5 2,8 -1,2 -5,3 -7,2l5 -10zm23 26l-28 -16 5 -10 28 16 0 10 -5 0zm5 -10c3,2 4,5 2,8 -1,2 -5,3 -7,2l5 -10z"/>
    </g>
   </g>
  </g>
  <g>
   <g>
    <polygon class="fil2" points="4936,2871 4006,2871 4006,2855 4936,2855 "/>
   </g>
   <g>
    <path class="fil2" d="M4226 2219l147 0 0 16 -147 0 -8 -8 8 -8zm-8 8l0 -8 8 0 -8 8zm0 636l0 -636 17 0 0 636 -17 0zm505 -636l0 636 -16 0 0 -636 8 -8 8 8zm-8 -8l8 0 0 8 -8 -8zm-146 0l146 0 0 16 -146 0 0 -16z"/>
   </g>
   <g>
    <path class="fil2" d="M4487 2246l-32 0 0 -16 32 0 8 8 -8 8zm0 -16l8 0 0 8 -8 -8zm-8 51l0 -43 16 0 0 43 -8 8 -8 -8zm8 8l-8 0 0 -8 8 8zm43 0l-43 0 0 -16 43 0 9 8 -9 8zm0 -16l9 0 0 8 -9 -8zm-8 41l0 -33 17 0 0 33 -9 8 -8 -8zm17 0l0 8 -9 0 9 -8zm-52 -9l43 0 0 17 -43 0 -8 -8 8 -9zm-8 9l0 -9 8 0 -8 9zm0 43l0 -43 16 0 0 43 -8 8 -8 -8zm16 0l0 8 -8 0 8 -8zm-40 -8l32 0 0 16 -32 0 -8 -8 8 -8zm0 16l-8 0 0 -8 8 8zm8 -51l0 43 -16 0 0 -43 8 -9 8 9zm-8 -9l8 0 0 9 -8 -9zm-44 0l44 0 0 17 -44 0 -8 -8 8 -9zm0 17l-8 0 0 -8 8 8zm9 -41l0 33 -17 0 0 -33 8 -8 9 8zm-17 0l0 -8 8 0 -8 8zm52 8l-44 0 0 -16 44 0 8 8 -8 8zm8 -8l0 8 -8 0 8 -8zm0 -43l0 43 -16 0 0 -43 8 -8 8 8zm-16 0l0 -8 8 0 -8 8z"/>
   </g>
   <g>
    <path class="fil2" d="M4569 2203l-196 0 0 -17 196 0 8 9 -8 8zm0 -17l8 0 0 9 -8 -9zm-8 214l0 -205 16 0 0 205 -8 8 -8 -8zm16 0l0 8 -8 0 8 -8zm-204 -8l196 0 0 16 -196 0 -8 -8 8 -8zm0 16l-8 0 0 -8 8 8zm8 -213l0 205 -16 0 0 -205 8 -9 8 9zm-16 0l0 -9 8 0 -8 9z"/>
   </g>
   <g>
    <path class="fil2" d="M4140 2544l84 0 0 17 -84 0 -9 -8 9 -9zm-9 9l0 -9 9 0 -9 9zm0 310l0 -310 17 0 0 310 -17 0z"/>
   </g>
   <g>
    <path class="fil2" d="M4363 2495l-106 0 0 -17 106 0 8 9 -8 8zm0 -17l8 0 0 9 -8 -9zm-8 58l0 -49 16 0 0 49 -8 8 -8 -8zm16 0l0 8 -8 0 8 -8zm-114 -8l106 0 0 16 -106 0 -8 -8 8 -8zm0 16l-8 0 0 -8 8 8zm8 -57l0 49 -16 0 0 -49 8 -9 8 9zm-16 0l0 -9 8 0 -8 9z"/>
   </g>
   <g>
    <path class="fil2" d="M4363 2586l-106 0 0 -16 106 0 8 8 -8 8zm0 -16l8 0 0 8 -8 -8zm-8 57l0 -49 16 0 0 49 -8 8 -8 -8zm16 0l0 8 -8 0 8 -8zm-114 -8l106 0 0 16 -106 0 -8 -8 8 -8zm0 16l-8 0 0 -8 8 8zm8 -57l0 49 -16 0 0 -49 8 -8 8 8zm-16 0l0 -8 8 0 -8 8z"/>
   </g>
   <g>
    <path class="fil2" d="M4363 2678l-106 0 0 -17 106 0 8 9 -8 8zm0 -17l8 0 0 9 -8 -9zm-8 58l0 -49 16 0 0 49 -8 8 -8 -8zm16 0l0 8 -8 0 8 -8zm-114 -8l106 0 0 16 -106 0 -8 -8 8 -8zm0 16l-8 0 0 -8 8 8zm8 -57l0 49 -16 0 0 -49 8 -9 8 9zm-16 0l0 -9 8 0 -8 9z"/>
   </g>
   <g>
    <path class="fil2" d="M4685 2495l-106 0 0 -17 106 0 8 9 -8 8zm0 -17l8 0 0 9 -8 -9zm-8 58l0 -49 16 0 0 49 -8 8 -8 -8zm16 0l0 8 -8 0 8 -8zm-114 -8l106 0 0 16 -106 0 -8 -8 8 -8zm0 16l-8 0 0 -8 8 8zm8 -57l0 49 -16 0 0 -49 8 -9 8 9zm-16 0l0 -9 8 0 -8 9z"/>
   </g>
   <g>
    <path class="fil2" d="M4685 2586l-106 0 0 -16 106 0 8 8 -8 8zm0 -16l8 0 0 8 -8 -8zm-8 57l0 -49 16 0 0 49 -8 8 -8 -8zm16 0l0 8 -8 0 8 -8zm-114 -8l106 0 0 16 -106 0 -8 -8 8 -8zm0 16l-8 0 0 -8 8 8zm8 -57l0 49 -16 0 0 -49 8 -8 8 8zm-16 0l0 -8 8 0 -8 8z"/>
   </g>
   <g>
    <path class="fil2" d="M4685 2678l-106 0 0 -17 106 0 8 9 -8 8zm0 -17l8 0 0 9 -8 -9zm-8 58l0 -49 16 0 0 49 -8 8 -8 -8zm16 0l0 8 -8 0 8 -8zm-114 -8l106 0 0 16 -106 0 -8 -8 8 -8zm0 16l-8 0 0 -8 8 8zm8 -57l0 49 -16 0 0 -49 8 -9 8 9zm-16 0l0 -9 8 0 -8 9z"/>
   </g>
   <g>
    <path class="fil2" d="M4524 2495l-106 0 0 -17 106 0 8 9 -8 8zm0 -17l8 0 0 9 -8 -9zm-8 58l0 -49 16 0 0 49 -8 8 -8 -8zm16 0l0 8 -8 0 8 -8zm-114 -8l106 0 0 16 -106 0 -8 -8 8 -8zm0 16l-8 0 0 -8 8 8zm8 -57l0 49 -16 0 0 -49 8 -9 8 9zm-16 0l0 -9 8 0 -8 9z"/>
   </g>
   <g>
    <path class="fil2" d="M4419 2670l0 193 -16 0 0 -193 8 -9 8 9zm-16 0l0 -9 8 0 -8 9zm127 8l-119 0 0 -17 119 0 9 9 -9 8zm0 -17l9 0 0 9 -9 -9zm-8 202l0 -193 17 0 0 193 -17 0z"/>
   </g>
   <g>
    <polygon class="fil2" points="4463,2863 4463,2670 4479,2670 4479,2863 "/>
   </g>
   <g>
    <path class="fil2" d="M4524 2583l-106 0 0 -16 106 0 8 8 -8 8zm0 -16l8 0 0 8 -8 -8zm-8 57l0 -49 16 0 0 49 -8 8 -8 -8zm16 0l0 8 -8 0 8 -8zm-114 -8l106 0 0 16 -106 0 -8 -8 8 -8zm0 16l-8 0 0 -8 8 8zm8 -57l0 49 -16 0 0 -49 8 -8 8 8zm-16 0l0 -8 8 0 -8 8z"/>
   </g>
   <g>
    <polygon class="fil2" points="4373,2297 4226,2297 4226,2280 4373,2280 "/>
   </g>
   <g>
    <polygon class="fil2" points="4715,2297 4574,2297 4574,2280 4715,2280 "/>
   </g>
   <g>
    <path class="fil2" d="M4792 2795l21 0 0 17 -21 0 0 0 0 -17zm-35 -5l14 -9 0 0 0 1 1 1 1 1 0 1 1 0 1 1 0 1 1 1 1 0 0 1 1 1 1 0 0 1 1 0 1 1 0 0 1 1 0 0 1 0 1 1 0 0 1 0 1 0 0 1 1 0 1 0 0 0 1 0 1 0 1 0 0 0 1 0 0 17 -1 0 -2 0 -1 0 -1 0 -1 -1 -2 0 -1 0 -1 -1 -1 0 -2 0 -1 -1 -1 0 -1 -1 -1 -1 -2 0 -1 -1 -1 -1 -1 -1 -1 0 -1 -1 -1 -1 -1 -1 -1 -1 -1 -1 -1 -1 -1 -1 -1 -1 -1 -1 0 -2 -1 -1 -1 -1 -1 -1 0 0zm-12 -48l16 0 0 0 0 1 0 2 0 1 0 2 0 1 0 1 1 2 0 1 0 1 0 2 0 1 0 1 1 2 0 1 0 1 0 1 1 2 0 1 0 1 1 1 0 1 1 1 0 2 1 1 0 1 0 1 1 1 1 1 0 1 1 1 0 1 1 1 -14 9 -1 -2 0 -1 -1 -1 -1 -1 -1 -2 0 -1 -1 -2 -1 -1 0 -1 -1 -2 0 -1 -1 -2 0 -1 -1 -2 0 -1 0 -2 -1 -1 0 -2 0 -1 -1 -2 0 -1 0 -2 0 -2 -1 -1 0 -2 0 -1 0 -2 0 -2 0 -1 0 -2 0 -2 0 -1 0 0zm115 -1l-16 1 0 0 -2 -27 -1 -25 -2 -23 -2 -22 -3 -20 -2 -18 -3 -17 -4 -15 -3 -13 -3 -12 -4 -9 -4 -8 -3 -6 -3 -4 -3 -2 -1 0 -1 0 -1 1 -3 2 -3 5 -4 7 -3 9 -4 11 -3 12 -3 15 -3 17 -3 19 -2 20 -2 23 -2 25 -2 26 -1 29 -16 0 1 -29 2 -27 1 -25 3 -23 2 -21 3 -20 3 -17 3 -15 4 -14 3 -12 4 -10 5 -8 4 -7 6 -5 7 -4 7 -1 7 3 6 4 5 7 5 7 4 9 4 11 4 12 3 14 4 16 3 17 3 19 2 20 2 22 2 24 2 25 1 27 0 0zm-12 49l-14 -9 0 0 1 -1 0 -1 1 -1 0 -1 1 -1 0 -1 1 -1 0 -2 1 -1 0 -1 1 -1 0 -1 0 -1 1 -2 0 -1 0 -1 1 -1 0 -1 0 -2 0 -1 1 -1 0 -2 0 -1 0 -1 0 -2 0 -1 0 -1 1 -2 0 -1 0 -2 0 -1 0 -1 16 -1 0 2 0 1 0 2 0 2 0 1 0 2 0 2 -1 1 0 2 0 2 0 1 0 2 -1 1 0 2 0 1 -1 2 0 1 0 2 -1 1 0 2 -1 1 0 2 -1 1 -1 2 0 1 -1 2 0 1 -1 1 -1 2 -1 1 0 1 -1 2 0 0zm-35 22l0 -17 0 0 1 0 0 0 1 0 1 0 0 0 1 0 1 0 0 0 1 -1 1 0 0 0 1 0 1 -1 0 0 1 0 1 -1 0 0 1 -1 1 0 0 -1 1 0 1 -1 0 -1 1 0 1 -1 0 -1 1 -1 1 0 0 -1 1 -1 0 -1 1 -1 14 9 -1 1 -1 1 -1 1 0 1 -1 2 -1 1 -1 1 -1 1 -1 1 -1 1 -1 1 -1 1 -1 1 -1 0 -1 1 -1 1 -1 1 -2 0 -1 1 -1 0 -1 1 -1 1 -2 0 -1 0 -1 1 -1 0 -2 0 -1 0 -1 1 -2 0 -1 0 -1 0 0 0z"/>
   </g>
   <g>
    <polygon class="fil2" points="4794,2863 4794,2804 4811,2804 4811,2863 "/>
   </g>
   <g>
    <polygon class="fil2" points="3678,2871 2748,2871 2748,2855 3678,2855 "/>
   </g>
   <g>
    <path class="fil2" d="M2834 2252l-12 611 -17 0 13 -611 8 -8 8 8zm-16 0l0 -8 8 0 -8 8zm65 8l-57 0 0 -16 57 0 8 8 -8 8zm0 -16l8 0 0 8 -8 -8zm4 619l-12 -611 16 0 12 611 -16 0z"/>
   </g>
   <g>
    <polygon class="fil2" points="2887,2341 2824,2341 2824,2325 2887,2325 "/>
   </g>
   <g>
    <polygon class="fil2" points="2887,2396 2824,2396 2824,2379 2887,2379 "/>
   </g>
   <g>
    <path class="fil2" d="M3637 2871l-684 0 0 -16 684 0 8 8 -8 8zm8 -8l0 8 -8 0 8 -8zm0 -277l0 277 -16 0 0 -277 8 -8 8 8zm-8 -8l8 0 0 8 -8 -8zm-684 0l684 0 0 16 -684 0 -8 -8 8 -8zm-8 8l0 -8 8 0 -8 8zm0 277l0 -277 16 0 0 277 -8 8 -8 -8zm8 8l-8 0 0 -8 8 8z"/>
   </g>
   <g>
    <path class="fil2" d="M3637 2595l-88 0 0 -16 88 0 8 8 -8 8zm8 -8l0 8 -8 0 8 -8zm0 -91l0 91 -16 0 0 -91 8 -8 8 8zm-8 -8l8 0 0 8 -8 -8zm-625 0l625 0 0 16 -625 0 -8 -8 8 -8zm-8 8l0 -8 8 0 -8 8zm0 91l0 -91 16 0 0 91 -16 0z"/>
   </g>
   <g>
    <path class="fil2" d="M3167 2452l0 44 -16 0 0 -44 8 -9 8 9zm-16 0l0 -9 8 0 -8 9zm182 8l-174 0 0 -17 174 0 0 17z"/>
   </g>
   <g>
    <path class="fil2" d="M3333 2400l132 -1 0 16 -132 1 -8 -8 8 -8zm-8 8l0 -8 8 0 -8 8zm0 89l0 -89 16 0 0 89 -16 0z"/>
   </g>
   <g>
    <path class="fil2" d="M3473 2292l0 204 -16 0 0 -204 12 -7 4 7zm-16 0l0 -13 12 6 -12 7zm61 36l-57 -28 8 -15 56 28 5 7 -12 8zm7 -15l5 2 0 5 -5 -7zm-12 183l0 -176 17 0 0 176 -17 0z"/>
   </g>
   <g>
    <path class="fil2" d="M3579 2684l-180 0 0 -17 180 0 8 9 -8 8zm0 -17l8 0 0 9 -8 -9zm-9 57l0 -48 17 0 0 48 -8 9 -9 -9zm17 0l0 9 -8 0 8 -9zm-188 -8l180 0 0 17 -180 0 -8 -9 8 -8zm0 17l-8 0 0 -9 8 9zm8 -57l0 48 -16 0 0 -48 8 -9 8 9zm-16 0l0 -9 8 0 -8 9z"/>
   </g>
   <g>
    <path class="fil2" d="M3407 2773l0 90 -16 0 0 -90 8 -8 8 8zm-16 0l0 -8 8 0 -8 8zm188 8l-180 0 0 -16 180 0 8 8 -8 8zm0 -16l8 0 0 8 -8 -8zm-9 98l0 -90 17 0 0 90 -17 0z"/>
   </g>
   <g>
    <polygon class="fil2" points="3229,2830 3229,2676 3246,2676 3246,2830 "/>
   </g>
   <g>
    <polygon class="fil2" points="3286,2830 3286,2676 3302,2676 3302,2830 "/>
   </g>
   <g>
    <polygon class="fil2" points="3117,2830 3117,2676 3133,2676 3133,2830 "/>
   </g>
   <g>
    <polygon class="fil2" points="3173,2830 3173,2676 3189,2676 3189,2830 "/>
   </g>
   <g>
    <polygon class="fil2" points="3004,2830 3004,2676 3020,2676 3020,2830 "/>
   </g>
   <g>
    <polygon class="fil2" points="3060,2830 3060,2676 3077,2676 3077,2830 "/>
   </g>
   <g>
    <polygon class="fil2" points="2941,2227 2847,2227 2847,2211 2941,2211 "/>
   </g>
   <g>
    <polygon class="fil2" points="2967,2203 2873,2203 2873,2186 2967,2186 "/>
   </g>
   <g>
    <polygon class="fil2" points="3595,2268 3501,2268 3501,2251 3595,2251 "/>
   </g>
   <g>
    <polygon class="fil2" points="3621,2243 3527,2243 3527,2227 3621,2227 "/>
   </g>
   <g>
    <path class="fil2" d="M3094 2537l-24 0 0 -16 24 0 8 8 -8 8zm0 -16l8 0 0 8 -8 -8zm-8 32l0 -24 16 0 0 24 -8 8 -8 -8zm16 0l0 8 -8 0 8 -8zm-32 -8l24 0 0 16 -24 0 -9 -8 9 -8zm0 16l-9 0 0 -8 9 8zm8 -32l0 24 -17 0 0 -24 9 -8 8 8zm-17 0l0 -8 9 0 -9 8z"/>
   </g>
   <g>
    <path class="fil2" d="M3161 2537l-25 0 0 -16 25 0 8 8 -8 8zm0 -16l8 0 0 8 -8 -8zm-8 32l0 -24 16 0 0 24 -8 8 -8 -8zm16 0l0 8 -8 0 8 -8zm-33 -8l25 0 0 16 -25 0 -8 -8 8 -8zm0 16l-8 0 0 -8 8 8zm8 -32l0 24 -16 0 0 -24 8 -8 8 8zm-16 0l0 -8 8 0 -8 8z"/>
   </g>
   <g>
    <path class="fil2" d="M3227 2537l-24 0 0 -16 24 0 8 8 -8 8zm0 -16l8 0 0 8 -8 -8zm-8 32l0 -24 16 0 0 24 -8 8 -8 -8zm16 0l0 8 -8 0 8 -8zm-32 -8l24 0 0 16 -24 0 -8 -8 8 -8zm0 16l-8 0 0 -8 8 8zm8 -32l0 24 -16 0 0 -24 8 -8 8 8zm-16 0l0 -8 8 0 -8 8z"/>
   </g>
   <g>
    <path class="fil2" d="M3294 2537l-25 0 0 -16 25 0 8 8 -8 8zm0 -16l8 0 0 8 -8 -8zm-8 32l0 -24 16 0 0 24 -8 8 -8 -8zm16 0l0 8 -8 0 8 -8zm-33 -8l25 0 0 16 -25 0 -8 -8 8 -8zm0 16l-8 0 0 -8 8 8zm8 -32l0 24 -16 0 0 -24 8 -8 8 8zm-16 0l0 -8 8 0 -8 8z"/>
   </g>
   <g>
    <polygon class="fil2" points="6193,2871 5264,2871 5264,2855 6193,2855 "/>
   </g>
   <g>
    <path class="fil2" d="M5356 2499l218 0 0 16 -218 0 -7 -12 7 -4zm0 16l-15 0 8 -12 7 12zm109 -168l-102 165 -14 -9 102 -165 7 -4 7 13zm-14 -9l3 -4 4 0 -7 4zm258 13l-251 0 0 -17 251 0 0 17z"/>
   </g>
   <g>
    <path class="fil2" d="M6101 2499l7 4 -7 12 -218 0 0 -16 218 0zm7 4l8 12 -15 0 7 -12zm-116 -156l7 -13 7 4 102 165 -14 9 -102 -165zm7 -13l4 0 3 4 -7 -4zm-251 17l0 -17 251 0 0 17 -251 0z"/>
   </g>
   <g>
    <path class="fil2" d="M5813 2425l-88 -107 13 -10 88 107 0 0 -13 10zm13 -10l0 0 0 0 0 0zm74 120l-87 -110 13 -10 87 110 -7 13 -6 -3zm13 -10l10 13 -17 0 7 -13zm-56 -3l49 0 0 16 -49 0 -6 -3 6 -13zm0 16l-4 0 -2 -3 6 3zm-74 -110l80 97 -12 10 -80 -97 12 -10 0 0zm0 0l0 0 1 0 -1 0zm-45 -54l45 54 -12 10 -46 -54 0 -11 13 1zm-13 -1l7 -7 6 8 -13 -1zm-45 55l45 -55 13 11 -46 54 -13 -10 1 0zm-1 0l1 0 -1 0 0 0zm-80 97l80 -97 13 10 -80 97 -6 3 -7 -13zm13 10l-2 3 -4 0 6 -3zm-56 -13l50 0 0 16 -50 0 -6 -13 6 -3zm0 16l-16 0 10 -13 6 13zm94 -113l-87 110 -13 -10 87 -110 0 0 13 10zm-13 -10l0 0 0 0 0 0zm101 -97l-89 107 -12 -10 88 -107 13 0 0 10zm-13 -10l7 -8 6 8 -13 0z"/>
   </g>
   <g>
    <path class="fil2" d="M5387 2814l0 49 -16 0 0 -49 8 -9 8 9zm-16 0l0 -9 8 0 -8 9zm242 8l-234 0 0 -17 234 0 0 17z"/>
   </g>
   <g>
    <polygon class="fil2" points="5598,2856 5598,2530 5614,2530 5614,2856 "/>
   </g>
   <g>
    <polygon class="fil2" points="5849,2856 5849,2530 5865,2530 5865,2856 "/>
   </g>
   <g>
    <path class="fil2" d="M5504 2759l0 17 0 0 -2 0 -3 0 -2 1 -1 0 -2 1 -1 1 -1 0 -1 1 -1 1 -1 2 -1 1 0 1 -1 2 -1 2 0 1 0 2 -1 2 0 2 0 1 0 2 0 2 0 2 0 1 0 2 0 1 0 1 0 1 1 1 0 1 0 1 0 0 0 0 -16 3 0 0 0 0 0 -1 0 -1 -1 -1 0 -2 0 -1 0 -2 0 -2 0 -2 0 -2 0 -2 0 -2 0 -3 0 -2 1 -3 0 -2 1 -3 1 -3 1 -2 1 -3 1 -2 2 -3 2 -2 2 -2 3 -2 3 -2 3 -1 3 -1 4 -1 3 0 4 -1 0 0zm15 8l17 1 -9 -9 0 0 1 0 0 0 0 0 0 0 0 0 1 0 0 0 0 0 0 0 1 0 0 0 0 0 0 17 0 0 -1 0 0 0 0 0 -1 0 0 0 -1 0 -1 0 -1 0 -2 0 -1 0 -2 0 -2 0 -2 0 -3 0 -2 0 -3 0 -4 0 0 -17 4 0 3 0 2 0 3 0 2 0 2 0 2 0 1 0 2 0 1 0 1 0 1 0 0 0 1 0 0 0 0 0 1 0 0 0 0 17 0 0 0 0 -1 0 0 0 0 0 0 0 -1 0 0 0 0 0 0 0 0 0 -1 0 0 0 -8 -9zm48 -34l0 16 0 0 -3 0 -3 1 -3 0 -2 0 -3 1 -2 0 -2 1 -1 1 -2 0 -1 1 -1 1 -2 1 -1 1 0 1 -1 0 -1 1 -1 1 0 1 -1 1 0 1 0 0 -1 1 0 1 0 1 0 0 0 1 0 0 0 0 0 1 0 0 0 0 0 0 -17 -1 0 0 0 0 0 -1 0 -1 1 -1 0 -1 0 -1 0 -1 1 -1 0 -1 1 -2 0 -1 1 -2 1 -1 1 -2 1 -2 1 -1 2 -2 2 -1 1 -2 2 -1 2 -2 3 -1 2 -1 3 -1 2 -1 3 -1 4 -1 3 0 3 -1 4 0 4 0 0 0zm47 29l-16 0 0 1 0 0 0 -1 0 0 0 0 0 0 -1 0 0 -1 0 0 0 0 0 -1 0 -1 -1 0 0 -1 -1 0 0 -1 -1 0 0 -1 -1 -1 -1 0 -1 -1 -1 -1 -2 0 -1 -1 -2 0 -2 -1 -2 0 -3 -1 -2 0 -3 0 -3 -1 -3 0 0 -16 4 0 3 0 4 1 3 0 3 1 3 0 3 1 2 1 3 1 2 1 2 1 2 1 1 1 2 2 2 1 1 1 1 2 1 1 1 1 1 2 1 1 0 1 1 1 0 2 0 1 0 1 1 0 0 1 0 1 0 0 0 1 0 0z"/>
   </g>
   <g>
    <path class="fil2" d="M5452 2759l0 -16 0 0 3 0 3 0 2 0 3 1 3 0 2 1 3 1 2 0 2 1 2 1 2 1 2 1 2 1 1 1 2 1 1 1 2 2 1 1 1 1 1 1 1 1 1 1 1 1 0 1 1 0 0 1 1 1 0 0 1 1 0 0 0 0 0 1 -15 7 0 0 0 0 0 0 0 0 0 0 0 -1 -1 0 0 -1 0 0 -1 -1 0 0 -1 -1 0 -1 -1 0 -1 -1 -1 -1 -1 -1 -1 0 -1 -1 -1 -1 -1 0 -2 -1 -1 -1 -2 0 -1 -1 -2 0 -2 -1 -2 0 -2 0 -2 -1 -2 0 -2 0 0 0zm-38 25l-17 0 0 0 0 -2 1 -1 0 -2 1 -1 0 -2 1 -1 1 -2 1 -1 0 -2 2 -1 1 -2 1 -1 1 -2 2 -2 1 -1 2 -2 2 -1 1 -2 2 -2 2 -1 3 -1 2 -2 2 -1 3 -1 2 -1 3 -1 3 -1 2 -1 3 0 3 -1 3 0 4 0 0 16 -3 0 -2 0 -2 1 -2 0 -2 1 -2 0 -2 1 -2 1 -2 1 -1 0 -2 1 -1 1 -2 2 -1 1 -2 1 -1 1 -1 1 -1 1 -1 2 -1 1 -1 1 -1 1 -1 1 0 1 -1 1 0 1 -1 1 0 1 0 0 0 0 0 0 0 0 0 0zm0 30l-17 0 0 0 0 -1 0 0 0 0 0 -1 0 -1 0 0 0 -1 0 -1 0 -1 0 -1 0 -1 0 -1 0 -1 0 -2 0 -1 0 -1 0 -1 0 -1 0 -2 0 -1 0 -1 0 -1 0 -2 0 -1 0 -1 0 -1 0 -1 0 -1 0 -1 0 0 0 -1 17 0 0 1 0 0 0 1 0 1 0 1 0 1 0 1 0 1 0 2 0 1 0 1 0 1 0 2 0 1 0 1 0 1 0 1 0 2 0 1 0 1 0 1 0 1 0 1 0 1 0 1 0 0 0 1 0 1 0 0 0 0 0 1 0 0z"/>
   </g>
   <g>
    <polygon class="fil2" points="5431,2507 5431,2760 5414,2760 5414,2507 "/>
   </g>
   <g>
    <polygon class="fil2" points="6029,2856 6029,2507 6046,2507 6046,2856 "/>
   </g>
   <g>
    <path class="fil2" d="M5678 2659l0 204 -16 0 0 -204 8 -8 8 8zm-16 0l0 -8 8 0 -8 8zm131 8l-123 0 0 -16 123 0 8 8 -8 8zm0 -16l8 0 0 8 -8 -8zm-8 212l0 -204 16 0 0 204 -16 0z"/>
   </g>
   <g>
    <path class="fil2" d="M5547 2585l-66 0 0 -17 66 0 8 8 -8 9zm0 -17l8 0 0 8 -8 -8zm-8 140l0 -132 16 0 0 132 -8 8 -8 -8zm16 0l0 8 -8 0 8 -8zm-74 -8l66 0 0 16 -66 0 -8 -8 8 -8zm0 16l-8 0 0 -8 8 8zm8 -140l0 132 -16 0 0 -132 8 -8 8 8zm-16 0l0 -8 8 0 -8 8z"/>
   </g>
   <g>
    <path class="fil2" d="M5979 2585l-66 0 0 -17 66 0 8 8 -8 9zm0 -17l8 0 0 8 -8 -8zm-8 140l0 -132 16 0 0 132 -8 8 -8 -8zm16 0l0 8 -8 0 8 -8zm-74 -8l66 0 0 16 -66 0 -8 -8 8 -8zm0 16l-8 0 0 -8 8 8zm8 -140l0 132 -16 0 0 -132 8 -8 8 8zm-16 0l0 -8 8 0 -8 8z"/>
   </g>
   <g>
    <path class="fil2" d="M5771 2581l-79 0 0 -16 79 0 8 8 -8 8zm8 -8l0 8 -8 0 8 -8zm0 -53l0 53 -16 0 0 -53 0 0 16 0zm-48 -31l0 -16 0 0 3 0 2 0 3 0 2 1 2 0 2 1 3 1 2 0 2 1 2 1 2 2 2 1 2 1 2 2 1 1 2 2 2 1 1 2 1 2 2 2 1 2 1 2 1 2 1 2 1 2 1 2 0 2 1 3 0 2 1 3 0 2 0 2 -16 0 0 -1 0 -2 -1 -1 0 -2 0 -1 -1 -2 0 -1 -1 -2 0 -1 -1 -2 -1 -1 -1 -1 -1 -1 0 -2 -1 -1 -2 -1 -1 -1 -1 -1 -1 -1 -1 -1 -1 0 -2 -1 -1 -1 -2 -1 -1 0 -1 -1 -2 0 -1 0 -2 -1 -1 0 -2 0 -2 0 0 0zm0 -16l0 0 0 16 0 0 0 0 0 -16zm-31 47l-16 0 0 0 0 -2 0 -2 0 -3 1 -2 0 -3 1 -2 1 -2 0 -2 1 -2 1 -2 2 -2 1 -2 1 -2 2 -2 1 -2 2 -1 1 -2 2 -1 2 -2 2 -1 2 -1 2 -2 2 -1 2 -1 2 0 2 -1 2 -1 3 0 2 -1 2 0 3 0 2 0 0 16 -1 0 -2 0 -1 0 -2 1 -2 0 -1 0 -1 1 -2 0 -1 1 -2 1 -1 1 -1 0 -1 1 -2 1 -1 1 -1 1 -1 1 -1 1 -1 2 -1 1 -1 1 0 1 -1 2 -1 1 0 2 -1 1 0 2 0 1 -1 2 0 1 0 2 0 1 0 0zm-16 53l0 -53 16 0 0 53 -8 8 -8 -8zm8 8l-8 0 0 -8 8 8z"/>
   </g>
   <g>
    <polygon class="fil2" points="5770,2707 5698,2748 5690,2734 5762,2693 "/>
   </g>
   <g>
    <polygon class="fil2" points="5770,2757 5724,2783 5716,2769 5762,2742 "/>
   </g>
   <g>
    <path class="fil2" d="M5869 2258l0 84 -16 0 0 -84 8 -8 8 8zm-16 0l0 -8 8 0 -8 8zm62 8l-54 0 0 -16 54 0 8 8 -8 8zm0 -16l8 0 0 8 -8 -8zm-8 92l-1 -84 17 0 0 84 -16 0z"/>
   </g>
   <g>
    <polygon class="fil2" points="5979,2229 5885,2229 5885,2213 5979,2213 "/>
   </g>
   <g>
    <polygon class="fil2" points="6005,2205 5911,2205 5911,2188 6005,2188 "/>
   </g>
   <g>
    <polygon class="fil2" points="2420,2870 1490,2870 1490,2853 2420,2853 "/>
   </g>
   <g>
    <path class="fil2" d="M2116 2568l-312 0 0 -16 312 0 8 8 -8 8zm8 -8l0 8 -8 0 8 -8zm0 -149l0 149 -16 0 0 -149 0 0 16 0zm-147 -131l0 -16 0 0 8 0 7 1 8 1 7 1 7 2 7 2 7 2 7 3 6 3 6 3 6 3 6 4 6 4 6 5 5 4 5 5 5 5 5 6 4 5 4 6 4 6 3 6 4 6 3 7 2 6 3 7 2 7 1 7 2 8 0 7 1 7 0 8 -16 0 0 -7 -1 -6 -1 -7 -1 -6 -1 -7 -2 -6 -2 -6 -2 -6 -3 -6 -3 -5 -3 -6 -3 -5 -4 -5 -4 -5 -4 -5 -4 -4 -5 -5 -5 -4 -5 -4 -5 -3 -5 -4 -5 -3 -6 -3 -6 -2 -6 -3 -6 -2 -6 -1 -6 -2 -7 -1 -6 -1 -7 0 -7 -1 0 0zm-34 -16l34 0 0 16 -34 0 0 0 0 -16zm-131 147l-16 0 0 0 0 -8 1 -7 1 -7 1 -8 2 -7 2 -7 2 -7 3 -6 3 -7 3 -6 3 -6 4 -6 4 -6 5 -5 4 -6 5 -5 5 -5 5 -4 6 -5 6 -4 6 -4 6 -3 6 -3 7 -3 6 -3 7 -2 7 -2 7 -2 7 -1 8 -1 7 -1 8 0 0 16 -7 1 -7 0 -6 1 -6 1 -7 2 -6 1 -6 2 -6 3 -6 2 -5 3 -6 3 -5 4 -5 3 -5 4 -5 4 -4 5 -5 4 -4 5 -4 5 -3 5 -4 5 -3 6 -3 5 -2 6 -3 6 -2 6 -2 6 -1 7 -1 6 -1 7 -1 6 0 7 0 0zm-16 149l0 -149 16 0 0 149 -8 8 -8 -8zm8 8l-8 0 0 -8 8 8z"/>
   </g>
   <g>
    <path class="fil2" d="M2175 2620l-430 0 0 -16 430 0 8 8 -8 8zm8 -8l0 8 -8 0 8 -8zm0 -205l0 205 -16 0 0 -205 0 0 16 0zm-188 -172l0 -16 0 0 9 0 10 1 9 1 10 2 9 2 9 3 8 3 9 3 8 4 8 4 8 4 8 5 7 6 7 5 7 6 7 6 6 7 6 7 6 7 5 7 5 8 4 8 5 8 3 8 4 9 3 8 2 9 2 10 2 9 1 9 1 10 0 9 -16 0 0 -8 -1 -9 -1 -9 -2 -8 -2 -8 -2 -9 -3 -8 -3 -7 -3 -8 -4 -7 -4 -8 -5 -7 -4 -6 -6 -7 -5 -6 -6 -6 -6 -6 -6 -5 -6 -5 -7 -5 -7 -5 -7 -4 -8 -4 -7 -3 -8 -3 -8 -3 -8 -2 -9 -2 -8 -2 -9 -1 -8 0 -9 -1 0 0zm-70 -16l70 0 0 16 -70 0 0 0 0 -16zm-172 188l-16 0 0 0 0 -9 1 -10 1 -9 2 -9 2 -10 3 -9 3 -8 3 -9 4 -8 4 -8 4 -8 5 -8 6 -7 5 -7 6 -7 6 -7 7 -6 7 -6 7 -5 7 -6 8 -5 8 -4 8 -4 8 -4 9 -3 9 -3 8 -3 10 -2 9 -2 9 -1 10 -1 9 0 0 16 -8 1 -9 0 -9 1 -8 2 -8 2 -9 2 -8 3 -7 3 -8 3 -7 4 -8 4 -7 5 -6 5 -7 5 -6 5 -6 6 -6 6 -5 6 -5 7 -5 6 -5 7 -4 8 -4 7 -3 8 -3 7 -3 8 -2 9 -2 8 -2 8 -1 9 0 9 -1 8 0 0zm-16 205l0 -205 16 0 0 205 -8 8 -8 -8zm8 8l-8 0 0 -8 8 8z"/>
   </g>
   <g>
    <polygon class="fil2" points="1759,2861 1759,2612 1776,2612 1776,2861 "/>
   </g>
   <g>
    <polygon class="fil2" points="2144,2861 2144,2612 2161,2612 2161,2861 "/>
   </g>
   <g>
    <polygon class="fil2" points="1670,2861 1670,2552 1687,2552 1687,2861 "/>
   </g>
   <g>
    <path class="fil2" d="M2242 2459l8 9 -8 8 -66 0 0 -17 66 0zm0 0l8 0 0 9 -8 -9zm8 402l-16 0 0 -393 16 0 0 393z"/>
   </g>
   <g>
    <path class="fil2" d="M2221 2405l0 456 -16 0 0 -456 0 0 16 0zm-220 -204l0 -16 0 0 11 0 11 1 11 1 11 2 11 3 10 3 11 3 10 4 9 5 10 5 9 5 9 6 9 6 8 6 8 7 8 8 7 7 7 8 6 9 7 8 5 9 6 9 4 10 5 10 4 10 3 10 3 10 3 11 2 11 1 11 1 11 0 11 -16 0 0 -10 -1 -11 -1 -10 -2 -10 -2 -10 -3 -9 -3 -10 -4 -9 -4 -9 -5 -9 -5 -8 -5 -9 -6 -8 -6 -7 -6 -8 -7 -7 -7 -7 -7 -6 -8 -6 -8 -6 -8 -5 -9 -5 -9 -5 -9 -4 -9 -3 -10 -4 -9 -2 -10 -3 -10 -1 -10 -2 -11 -1 -10 0 0 0zm-82 -16l82 0 0 16 -82 0 0 0 0 -16zm-204 222l-17 0 0 0 1 -11 0 -12 2 -11 2 -10 2 -11 3 -11 3 -10 4 -10 5 -10 5 -9 5 -10 6 -9 6 -8 7 -9 7 -8 7 -8 8 -7 8 -7 8 -7 9 -6 9 -6 9 -5 10 -5 9 -4 10 -4 11 -4 10 -3 11 -3 11 -2 11 -1 11 -1 11 0 0 16 -10 0 -11 1 -10 2 -10 1 -10 3 -9 3 -10 3 -9 4 -9 4 -9 4 -9 5 -8 6 -8 5 -8 7 -7 6 -7 7 -7 7 -7 8 -6 7 -6 8 -5 9 -5 8 -4 9 -5 9 -3 10 -3 9 -3 10 -2 10 -2 10 -1 10 -1 10 0 11 0 0zm-16 62l-1 -62 17 0 0 62 -16 0zm-1 394l1 -314 16 0 0 314 -17 0z"/>
   </g>
   <g>
    <polygon class="fil2" points="2027,2366 1852,2466 1844,2452 2019,2352 "/>
   </g>
   <g>
    <polygon class="fil2" points="2045,2406 1948,2462 1940,2448 2036,2392 "/>
   </g>
   <g>
    <path class="fil2" d="M2414 2573l-118 0 0 -16 118 0 9 8 -9 8zm0 -16l9 0 0 8 -9 -8zm-8 126l0 -118 17 0 0 118 -9 9 -8 -9zm17 0l0 9 -9 0 9 -9zm-127 -8l118 0 0 17 -118 0 -8 -9 8 -8zm0 17l-8 0 0 -9 8 9zm8 -127l0 118 -16 0 0 -118 8 -8 8 8zm-16 0l0 -8 8 0 -8 8z"/>
   </g>
   <g>
    <path class="fil2" d="M2365 2607l-28 0 0 -16 28 0 0 0 0 16zm24 8l-16 0 0 0 0 -1 0 0 0 -1 0 0 0 0 0 -1 -1 0 0 0 0 -1 0 0 0 0 0 -1 -1 0 0 0 0 0 0 -1 -1 0 0 0 0 0 0 -1 -1 0 0 0 0 0 -1 0 0 0 0 -1 -1 0 0 0 -1 0 0 0 0 0 -1 0 0 -16 1 0 2 0 1 0 1 0 1 1 1 0 1 0 2 1 1 0 1 1 1 0 1 1 1 1 0 0 1 1 1 1 1 1 1 0 0 1 1 1 1 1 0 1 1 1 0 1 1 1 0 2 0 1 1 1 0 1 0 1 0 1 0 2 0 0zm-16 0l0 0 16 0 0 0 0 0 -16 0zm-8 24l0 -17 0 0 1 0 0 0 0 0 1 0 0 0 1 0 0 0 0 0 1 0 0 -1 0 0 1 0 0 0 0 0 0 -1 1 0 0 0 0 0 0 -1 1 0 0 0 0 -1 0 0 0 0 0 -1 1 0 0 0 0 -1 0 0 0 0 0 -1 0 0 16 0 0 1 0 1 0 1 0 2 -1 1 0 1 0 1 -1 1 0 1 -1 1 0 1 -1 1 -1 1 0 1 -1 1 -1 1 -1 0 -1 1 0 1 -1 1 -1 0 -1 1 -1 0 -1 1 -2 0 -1 1 -1 0 -1 0 -1 0 -1 0 -2 1 -1 0 0 0zm-28 -17l28 0 0 17 -28 0 -8 -9 8 -8zm0 17l-8 0 0 -9 8 9zm8 -40l0 31 -16 0 0 -31 8 -8 8 8zm-16 0l0 -8 8 0 -8 8z"/>
   </g>
   <g>
    <polygon class="fil2" points="2329,2664 2329,2630 2345,2630 2345,2664 "/>
   </g>
   <g>
    <polygon class="fil2" points="2347,2861 2347,2683 2363,2683 2363,2861 "/>
   </g>
   <g>
    <path class="fil2" d="M2085 2690l-250 0 0 -16 250 0 8 8 -8 8zm0 -16l8 0 0 8 -8 -8zm-8 187l0 -179 16 0 0 179 -8 9 -8 -9zm16 0l0 9 -8 0 8 -9zm-258 -8l250 0 0 17 -250 0 -8 -9 8 -8zm0 17l-8 0 0 -9 8 9zm8 -188l0 179 -16 0 0 -179 8 -8 8 8zm-16 0l0 -8 8 0 -8 8z"/>
   </g>
   <g>
    <polygon class="fil2" points="1952,2861 1952,2682 1968,2682 1968,2861 "/>
   </g>
   <g>
    <path class="fil2" d="M1496 2459l249 0 0 17 -249 0 -8 -8 8 -9zm-8 9l0 -9 8 0 -8 9zm0 84l0 -84 16 0 0 84 -8 8 -8 -8zm8 8l-8 0 0 -8 8 8zm249 0l-249 0 0 -16 249 0 8 8 -8 8zm8 -8l0 8 -8 0 8 -8zm0 -84l0 84 -16 0 0 -84 8 -9 8 9zm-8 -9l8 0 0 9 -8 -9z"/>
   </g>
   <g>
    <polygon class="fil2" points="1529,2527 1529,2495 1545,2495 1545,2527 "/>
   </g>
   <g>
    <polygon class="fil2" points="1571,2527 1571,2495 1587,2495 1587,2527 "/>
   </g>
   <g>
    <polygon class="fil2" points="1612,2527 1612,2495 1629,2495 1629,2527 "/>
   </g>
   <g>
    <polygon class="fil2" points="1654,2527 1654,2495 1670,2495 1670,2527 "/>
   </g>
   <g>
    <polygon class="fil2" points="1696,2527 1696,2495 1712,2495 1712,2527 "/>
   </g>
   <g>
    <path class="fil2" d="M1629 2635l-16 0 0 0 0 -1 0 -2 -1 -1 0 -2 0 -1 0 -1 -1 -2 0 -1 -1 -1 -1 -1 0 -2 -1 -1 -1 -1 -1 -1 -1 -1 -1 -1 -1 -1 -1 -1 -1 -1 -1 0 -1 -1 -1 -1 -1 -1 -2 0 -1 -1 -1 0 -2 0 -1 -1 -1 0 -2 0 -1 0 -2 0 0 -17 2 0 3 1 2 0 2 0 2 1 3 0 2 1 2 1 2 1 2 1 1 1 2 1 2 1 2 2 1 1 2 2 1 1 2 2 1 1 1 2 2 2 1 2 1 2 1 2 0 2 1 2 1 2 0 2 1 2 0 3 0 2 0 2 0 0zm-45 45l0 -16 0 0 2 0 1 0 2 0 1 -1 1 0 2 0 1 -1 1 0 2 -1 1 -1 1 0 1 -1 1 -1 1 -1 1 -1 1 0 1 -1 1 -2 1 -1 1 -1 1 -1 0 -1 1 -1 1 -2 0 -1 1 -1 0 -2 0 -1 0 -1 1 -2 0 -1 0 -2 16 0 0 3 0 2 0 2 -1 2 0 2 -1 3 -1 2 0 2 -1 2 -1 2 -1 2 -2 1 -1 2 -1 2 -2 1 -1 2 -2 2 -1 1 -2 1 -2 2 -2 1 -1 1 -2 1 -2 1 -2 0 -2 1 -3 1 -2 0 -2 1 -2 0 -3 0 -2 0 0 0zm-45 -45l17 0 0 0 0 2 0 1 0 2 0 1 0 1 1 2 0 1 1 1 0 2 1 1 1 1 0 1 1 1 1 1 1 2 1 1 1 0 1 1 1 1 1 1 1 1 2 0 1 1 1 1 1 0 2 1 1 0 1 0 2 1 1 0 2 0 1 0 0 16 -2 0 -2 0 -3 0 -2 -1 -2 0 -2 -1 -2 -1 -2 0 -2 -1 -2 -1 -2 -1 -2 -1 -2 -2 -1 -1 -2 -1 -2 -2 -1 -2 -1 -1 -2 -2 -1 -2 -1 -1 -1 -2 -1 -2 -1 -2 -1 -2 -1 -2 0 -3 -1 -2 0 -2 -1 -2 0 -2 0 -3 0 0zm45 -45l0 17 0 0 -1 0 -2 0 -1 0 -2 0 -1 1 -1 0 -2 0 -1 1 -1 0 -1 1 -2 1 -1 1 -1 0 -1 1 -1 1 -1 1 -1 1 -1 1 -1 1 -1 1 0 1 -1 2 -1 1 0 1 -1 1 0 2 -1 1 0 1 0 2 0 1 0 2 0 1 -17 0 0 -2 0 -2 1 -3 0 -2 1 -2 0 -2 1 -2 1 -2 1 -2 1 -2 1 -2 1 -2 1 -2 2 -1 1 -2 1 -1 2 -2 2 -1 1 -2 2 -1 2 -1 2 -1 2 -1 2 -1 2 -1 2 -1 2 0 2 -1 2 0 3 0 2 -1 2 0 0 0z"/>
   </g>
   <g>
    <polygon class="fil2" points="1576,2861 1576,2672 1592,2672 1592,2861 "/>
   </g>
   <g>
    <polygon class="fil2" points="1707,2476 1496,2476 1496,2459 1707,2459 "/>
   </g>
   <g>
    <polygon class="fil2" points="1029,2871 100,2871 100,2855 1029,2855 "/>
   </g>
   <g>
    <path class="fil2" d="M979 2353l-374 0 0 -16 374 0 8 8 -8 8zm0 -16l8 0 0 8 -8 -8zm-9 526l0 -518 17 0 0 518 -8 8 -9 -8zm17 0l0 8 -8 0 8 -8zm-382 -8l374 0 0 16 -374 0 -8 -8 8 -8zm0 16l-8 0 0 -8 8 8zm8 -526l0 518 -16 0 0 -518 8 -8 8 8zm-16 0l0 -8 8 0 -8 8z"/>
   </g>
   <g>
    <path class="fil2" d="M683 2752l-6 0 0 -16 6 0 0 0 0 16zm44 27l-16 0 0 0 0 -1 0 -1 0 -2 -1 -1 0 -1 0 -2 -1 -1 0 -1 -1 -1 0 -2 -1 -1 -1 -1 0 -1 -1 -1 -1 -1 -1 -1 -1 -1 -1 -1 -1 -1 -1 0 -1 -1 -1 -1 -2 0 -1 -1 -1 0 -1 -1 -2 0 -1 -1 -1 0 -2 0 -1 0 -2 0 0 -16 3 0 2 0 2 0 2 0 2 1 2 0 3 1 1 1 2 1 2 1 2 1 2 1 2 1 1 2 2 1 1 1 2 2 1 1 2 2 1 2 1 2 1 1 1 2 1 2 1 2 0 2 1 2 0 3 1 2 0 2 0 2 0 2 0 0zm-16 84l0 -84 16 0 0 84 -8 8 -8 -8zm16 0l0 8 -8 0 8 -8zm-85 -8l77 0 0 16 -77 0 -8 -8 8 -8zm0 16l-8 0 0 -8 8 8zm8 -92l0 84 -16 0 0 -84 0 0 16 0zm27 -43l0 16 0 0 -1 0 -1 0 -2 0 -1 0 -1 1 -2 0 -1 1 -1 0 -1 1 -2 0 -1 1 -1 1 -1 0 -1 1 -1 1 -1 1 -1 1 -1 1 -1 1 0 1 -1 1 -1 1 0 2 -1 1 0 1 -1 1 0 2 -1 1 0 1 0 2 0 1 0 1 -16 0 0 -2 0 -2 0 -2 1 -2 0 -3 1 -2 0 -2 1 -2 1 -2 1 -2 1 -1 1 -2 1 -2 2 -2 1 -1 2 -2 1 -1 2 -1 1 -2 2 -1 2 -1 2 -1 1 -1 2 -1 2 -1 2 -1 3 0 2 -1 2 0 2 0 2 0 2 0 0 0z"/>
   </g>
   <g>
    <path class="fil2" d="M795 2752l-6 0 0 -16 6 0 0 0 0 16zm44 27l-17 0 0 0 0 -1 0 -1 0 -2 0 -1 0 -1 -1 -2 0 -1 -1 -1 0 -1 -1 -2 -1 -1 0 -1 -1 -1 -1 -1 -1 -1 -1 -1 -1 -1 -1 -1 -1 -1 -1 0 -1 -1 -1 -1 -1 0 -1 -1 -2 0 -1 -1 -1 0 -2 -1 -1 0 -1 0 -2 0 -1 0 0 -16 2 0 2 0 2 0 3 0 2 1 2 0 2 1 2 1 2 1 2 1 2 1 1 1 2 1 2 2 1 1 2 1 1 2 2 1 1 2 1 2 1 2 1 1 1 2 1 2 1 2 1 2 0 2 1 3 0 2 0 2 1 2 0 2 0 0zm-17 84l0 -84 17 0 0 84 -8 8 -9 -8zm17 0l0 8 -8 0 8 -8zm-86 -8l78 0 0 16 -78 0 -8 -8 8 -8zm0 16l-8 0 0 -8 8 8zm8 -92l0 84 -16 0 0 -84 0 0 16 0zm28 -43l0 16 0 0 -2 0 -1 0 -1 0 -2 0 -1 1 -1 0 -2 1 -1 0 -1 1 -1 0 -1 1 -2 1 -1 0 -1 1 -1 1 -1 1 -1 1 0 1 -1 1 -1 1 -1 1 0 1 -1 2 -1 1 0 1 0 1 -1 2 0 1 0 1 -1 2 0 1 0 1 -16 0 0 -2 0 -2 1 -2 0 -2 0 -3 1 -2 1 -2 0 -2 1 -2 1 -2 1 -1 2 -2 1 -2 1 -2 1 -1 2 -2 1 -1 2 -1 2 -2 1 -1 2 -1 2 -1 2 -1 2 -1 2 -1 2 -1 2 0 2 -1 2 0 2 0 3 0 2 0 0 0z"/>
   </g>
   <g>
    <path class="fil2" d="M906 2752l-6 0 0 -16 6 0 0 0 0 16zm44 27l-16 0 0 0 0 -1 0 -1 -1 -2 0 -1 0 -1 0 -2 -1 -1 0 -1 -1 -1 -1 -2 0 -1 -1 -1 -1 -1 -1 -1 0 -1 -1 -1 -1 -1 -1 -1 -1 -1 -1 0 -2 -1 -1 -1 -1 0 -1 -1 -1 0 -2 -1 -1 0 -1 -1 -2 0 -1 0 -1 0 -2 0 0 -16 2 0 3 0 2 0 2 0 2 1 2 0 2 1 2 1 2 1 2 1 2 1 2 1 1 1 2 2 2 1 1 1 2 2 1 1 1 2 2 2 1 2 1 1 1 2 1 2 0 2 1 2 1 2 0 3 1 2 0 2 0 2 0 2 0 0zm-16 84l0 -84 16 0 0 84 -8 8 -8 -8zm16 0l0 8 -8 0 8 -8zm-85 -8l77 0 0 16 -77 0 -9 -8 9 -8zm0 16l-9 0 0 -8 9 8zm8 -92l0 84 -17 0 0 -84 0 0 17 0zm27 -43l0 16 0 0 -1 0 -2 0 -1 0 -1 0 -2 1 -1 0 -1 1 -1 0 -2 1 -1 0 -1 1 -1 1 -1 0 -1 1 -1 1 -1 1 -1 1 -1 1 -1 1 -1 1 0 1 -1 1 -1 2 0 1 -1 1 0 1 0 2 -1 1 0 1 0 2 0 1 0 1 -17 0 0 -2 1 -2 0 -2 0 -2 1 -3 0 -2 1 -2 1 -2 1 -2 1 -2 1 -1 1 -2 1 -2 1 -2 2 -1 1 -2 2 -1 1 -1 2 -2 2 -1 2 -1 1 -1 2 -1 2 -1 2 -1 2 -1 2 0 2 -1 3 0 2 0 2 0 2 0 0 0z"/>
   </g>
   <g>
    <path class="fil2" d="M359 2195l2 668 -16 0 -2 -668 8 -9 8 9zm-16 0l0 -9 8 0 -8 9zm428 8l-420 0 0 -17 420 0 8 9 -8 8zm0 -17l8 0 0 9 -8 -9zm-6 159l-2 -150 16 0 2 150 -16 0z"/>
   </g>
   <g>
    <polygon class="fil2" points="605,2684 396,2684 396,2667 605,2667 "/>
   </g>
   <g>
    <polygon class="fil2" points="432,2863 432,2675 449,2675 449,2863 "/>
   </g>
   <g>
    <path class="fil2" d="M719 2265l-323 0 0 -17 323 0 8 8 -8 9zm0 -17l8 0 0 8 -8 -8zm-9 56l0 -48 17 0 0 48 -8 8 -9 -8zm17 0l0 8 -8 0 8 -8zm-331 -8l323 0 0 16 -323 0 -8 -8 8 -8zm0 16l-8 0 0 -8 8 8zm8 -56l0 48 -16 0 0 -48 8 -8 8 8zm-16 0l0 -8 8 0 -8 8z"/>
   </g>
   <g>
    <path class="fil2" d="M605 2359l-209 0 0 -17 209 0 8 9 -8 8zm0 -17l8 0 0 9 -8 -9zm-8 56l0 -47 16 0 0 47 -8 8 -8 -8zm16 0l0 8 -8 0 8 -8zm-217 -8l209 0 0 16 -209 0 -8 -8 8 -8zm0 16l-8 0 0 -8 8 8zm8 -55l0 47 -16 0 0 -47 8 -9 8 9zm-16 0l0 -9 8 0 -8 9z"/>
   </g>
   <g>
    <path class="fil2" d="M605 2453l-209 0 0 -17 209 0 8 9 -8 8zm0 -17l8 0 0 9 -8 -9zm-8 56l0 -47 16 0 0 47 -8 9 -8 -9zm16 0l0 9 -8 0 8 -9zm-217 -8l209 0 0 17 -209 0 -8 -9 8 -8zm0 17l-8 0 0 -9 8 9zm8 -56l0 47 -16 0 0 -47 8 -9 8 9zm-16 0l0 -9 8 0 -8 9z"/>
   </g>
   <g>
    <path class="fil2" d="M605 2547l-209 0 0 -17 209 0 8 9 -8 8zm0 -17l8 0 0 9 -8 -9zm-8 56l0 -47 16 0 0 47 -8 9 -8 -9zm16 0l0 9 -8 0 8 -9zm-217 -8l209 0 0 17 -209 0 -8 -9 8 -8zm0 17l-8 0 0 -9 8 9zm8 -56l0 47 -16 0 0 -47 8 -9 8 9zm-16 0l0 -9 8 0 -8 9z"/>
   </g>
   <g>
    <polygon class="fil2" points="910,2224 910,2342 894,2342 894,2224 "/>
   </g>
   <g>
    <path class="fil2" d="M979 2258l-76 1 -1 -16 76 -2 9 9 -8 8zm-1 -17l9 0 0 9 -9 -9zm-8 44l0 -35 17 0 0 35 -8 8 -9 -8zm17 0l0 8 -8 0 8 -8zm-85 -7l76 -1 1 16 -76 1 -1 -16z"/>
   </g>
   <g>
    <polygon class="fil2" points="496,2304 496,2256 513,2256 513,2304 "/>
   </g>
   <g>
    <polygon class="fil2" points="602,2304 602,2256 618,2256 618,2304 "/>
   </g>
   <g>
    <polygon class="fil2" points="496,2406 496,2359 513,2359 513,2406 "/>
   </g>
   <g>
    <polygon class="fil2" points="496,2492 496,2445 513,2445 513,2492 "/>
   </g>
   <g>
    <polygon class="fil2" points="496,2585 496,2538 513,2538 513,2585 "/>
   </g>
   <g>
    <path class="fil2" d="M941 2400l-298 0 0 -16 298 0 8 8 -8 8zm0 -16l8 0 0 8 -8 -8zm-8 56l0 -48 16 0 0 48 -8 8 -8 -8zm16 0l0 8 -8 0 8 -8zm-306 -8l298 0 0 16 -298 0 -8 -8 8 -8zm0 16l-8 0 0 -8 8 8zm8 -56l0 48 -16 0 0 -48 8 -8 8 8zm-16 0l0 -8 8 0 -8 8z"/>
   </g>
   <g>
    <polygon class="fil2" points="731,2443 731,2395 747,2395 747,2443 "/>
   </g>
   <g>
    <polygon class="fil2" points="836,2443 836,2395 852,2395 852,2443 "/>
   </g>
   <g>
    <path class="fil2" d="M941 2487l-298 0 0 -16 298 0 8 8 -8 8zm0 -16l8 0 0 8 -8 -8zm-8 56l0 -48 16 0 0 48 -8 8 -8 -8zm16 0l0 8 -8 0 8 -8zm-306 -8l298 0 0 16 -298 0 -8 -8 8 -8zm0 16l-8 0 0 -8 8 8zm8 -56l0 48 -16 0 0 -48 8 -8 8 8zm-16 0l0 -8 8 0 -8 8z"/>
   </g>
   <g>
    <polygon class="fil2" points="731,2530 731,2482 747,2482 747,2530 "/>
   </g>
   <g>
    <polygon class="fil2" points="836,2530 836,2482 852,2482 852,2530 "/>
   </g>
   <g>
    <path class="fil2" d="M941 2574l-298 0 0 -16 298 0 8 8 -8 8zm0 -16l8 0 0 8 -8 -8zm-8 56l0 -48 16 0 0 48 -8 8 -8 -8zm16 0l0 8 -8 0 8 -8zm-306 -8l298 0 0 16 -298 0 -8 -8 8 -8zm0 16l-8 0 0 -8 8 8zm8 -56l0 48 -16 0 0 -48 8 -8 8 8zm-16 0l0 -8 8 0 -8 8z"/>
   </g>
   <g>
    <polygon class="fil2" points="731,2617 731,2569 747,2569 747,2617 "/>
   </g>
   <g>
    <polygon class="fil2" points="836,2617 836,2569 852,2569 852,2617 "/>
   </g>
   <g>
    <path class="fil2" d="M941 2661l-298 0 0 -16 298 0 8 8 -8 8zm0 -16l8 0 0 8 -8 -8zm-8 56l0 -48 16 0 0 48 -8 8 -8 -8zm16 0l0 8 -8 0 8 -8zm-306 -8l298 0 0 16 -298 0 -8 -8 8 -8zm0 16l-8 0 0 -8 8 8zm8 -56l0 48 -16 0 0 -48 8 -8 8 8zm-16 0l0 -8 8 0 -8 8z"/>
   </g>
   <g>
    <polygon class="fil2" points="731,2704 731,2656 747,2656 747,2704 "/>
   </g>
   <g>
    <polygon class="fil2" points="836,2704 836,2656 852,2656 852,2704 "/>
   </g>
   <g>
    <path class="fil2" d="M159 2815l0 48 -16 0 0 -48 8 -8 8 8zm-16 0l0 -8 8 0 -8 8zm217 8l-209 0 0 -16 209 0 0 16z"/>
   </g>
   <g>
    <path class="fil2" d="M164 2808l16 0 0 0 0 0 0 0 0 0 0 1 0 0 0 0 0 0 0 1 0 0 0 0 0 0 0 0 0 1 0 0 0 0 0 0 0 1 0 0 0 0 0 0 0 1 0 0 0 0 0 0 0 0 0 1 0 0 0 0 0 0 0 1 0 0 0 0 -16 3 0 -1 0 0 0 0 0 -1 0 0 0 0 0 0 0 -1 0 0 0 0 0 -1 0 0 0 0 0 -1 0 0 0 0 0 0 0 -1 0 0 0 0 0 -1 0 0 0 0 0 -1 0 0 0 0 0 -1 0 0 0 0 0 -1 0 0 0 0 0 0zm61 -62l0 16 0 0 -2 0 -2 1 -3 0 -2 0 -2 1 -2 0 -2 1 -2 1 -2 1 -2 1 -2 1 -2 1 -2 1 -2 2 -1 1 -2 2 -1 1 -2 2 -1 2 -1 1 -2 2 -1 2 -1 2 -1 2 0 2 -1 2 -1 2 0 3 -1 2 0 2 0 2 0 3 -16 0 0 -3 0 -4 0 -3 1 -3 0 -3 1 -3 1 -2 1 -3 2 -3 1 -3 1 -2 2 -3 2 -2 2 -2 2 -3 2 -2 2 -2 2 -2 2 -2 3 -1 2 -2 3 -1 2 -2 3 -1 3 -1 3 -1 3 -1 3 -1 3 0 3 -1 3 0 3 0 0 0zm39 23l8 14 -10 -2 -1 -1 -1 -1 -1 -1 -1 -1 -1 -1 -1 -1 -1 -1 -1 -1 -1 -1 -1 0 -1 -1 -1 -1 -1 -1 -1 0 -1 -1 -1 -1 -1 0 -2 -1 -1 0 -1 -1 -1 0 -1 -1 -2 0 -1 0 -1 -1 -2 0 -1 0 -1 0 -2 0 -1 0 -1 -1 -2 0 0 -16 2 0 2 0 2 0 2 1 1 0 2 0 2 0 2 1 2 0 1 1 2 0 2 1 1 1 2 0 2 1 1 1 2 1 1 1 2 1 1 0 2 1 1 2 2 1 1 1 1 1 2 1 1 1 1 2 1 1 1 1 2 2 1 1 -11 -2zm8 14l-6 3 -4 -5 10 2zm13 -19l0 16 0 0 -1 0 0 0 0 0 -1 0 0 0 -1 0 0 0 -1 0 0 0 -1 0 0 0 0 0 -1 0 0 1 -1 0 0 0 0 0 -1 0 0 0 -1 0 0 0 0 0 -1 1 0 0 -1 0 0 0 0 0 -1 0 0 0 0 1 -1 0 0 0 -8 -14 1 -1 0 0 1 0 1 -1 0 0 1 0 0 0 1 -1 1 0 0 0 1 0 1 0 0 -1 1 0 0 0 1 0 1 0 0 0 1 -1 1 0 0 0 1 0 1 0 0 0 1 0 1 0 0 0 1 0 1 0 0 0 1 0 1 0 0 0zm44 44l-16 0 0 0 0 -2 0 -1 -1 -1 0 -2 0 -1 -1 -2 0 -1 0 -1 -1 -1 -1 -2 0 -1 -1 -1 -1 -1 -1 -1 -1 -1 0 -1 -1 -1 -1 -1 -2 -1 -1 0 -1 -1 -1 -1 -1 0 -1 -1 -2 0 -1 -1 -1 0 -2 -1 -1 0 -1 0 -2 0 -1 0 0 -16 2 0 2 0 3 0 2 0 2 1 2 1 2 0 2 1 2 1 2 1 2 1 2 1 1 1 2 2 2 1 1 2 2 1 1 2 1 1 1 2 2 2 1 2 1 2 1 2 0 2 1 2 1 2 0 2 1 2 0 2 0 3 0 2 0 0zm-1 10l-16 -4 0 0 0 0 0 0 0 0 0 -1 0 0 0 0 0 0 0 0 0 -1 0 0 0 0 0 0 0 0 0 -1 1 0 0 0 0 0 0 -1 0 0 0 0 0 0 0 0 0 -1 0 0 0 0 0 0 0 0 0 -1 0 0 0 0 0 0 16 0 0 0 0 1 0 0 0 0 0 1 0 0 0 0 0 1 0 0 0 0 0 0 0 1 0 0 0 0 0 1 0 0 0 0 0 1 0 0 0 0 -1 1 0 0 0 0 0 1 0 0 0 0 0 1 0 0 0 0 0 1 0 0 0 0z"/>
   </g>
   <g>
    <polygon class="fil2" points="345,2703 345,2720 340,2720 335,2720 331,2721 327,2722 324,2723 321,2724 318,2726 315,2728 312,2730 310,2732 308,2734 306,2736 304,2738 302,2740 301,2743 300,2745 299,2748 297,2750 297,2753 296,2755 295,2757 295,2760 294,2762 294,2764 294,2765 293,2767 293,2769 293,2770 293,2771 293,2771 293,2772 293,2772 277,2772 277,2771 277,2771 277,2770 277,2769 277,2767 277,2765 277,2763 278,2761 278,2759 279,2756 279,2753 280,2750 281,2747 282,2744 284,2741 285,2738 287,2735 289,2732 291,2728 293,2725 296,2722 299,2719 302,2717 306,2714 310,2712 314,2710 318,2708 323,2706 328,2705 333,2704 339,2704 "/>
   </g>
  </g>
 </g>
</svg>
