<?xml version="1.0" encoding="UTF-8"?>
<!DOCTYPE svg PUBLIC "-//W3C//DTD SVG 1.1//EN" "http://www.w3.org/Graphics/SVG/1.1/DTD/svg11.dtd">
<!-- Creator: CorelDRAW X8 -->
<svg xmlns="http://www.w3.org/2000/svg" xml:space="preserve" width="1000px" height="1000px" version="1.1" style="shape-rendering:geometricPrecision; text-rendering:geometricPrecision; image-rendering:optimizeQuality; fill-rule:evenodd; clip-rule:evenodd"
viewBox="0 0 10000 10000"
 xmlns:xlink="http://www.w3.org/1999/xlink">
 <defs>
  <style type="text/css">
   <![CDATA[
    .str1 {stroke:#2C682C;stroke-width:19.9961}
    .str0 {stroke:#2C682C;stroke-width:20.8347}
    .fil0 {fill:none}
    .fil1 {fill:#2C682C;fill-rule:nonzero}
    .fil2 {fill:white;fill-rule:nonzero}
   ]]>
  </style>
 </defs>
 <g id="Слой_x0020_1">
  <metadata id="CorelCorpID_0Corel-Layer"/>
  <g id="_1920475145664">
   <g>
    <rect class="fil0 str0" x="263" y="612" width="809" height="308"/>
    <line class="fil0 str0" x1="538" y1="612" x2="538" y2= "920" />
    <line class="fil0 str0" x1="667" y1="612" x2="667" y2= "920" />
    <line class="fil0 str0" x1="796" y1="612" x2="796" y2= "920" />
    <polyline class="fil0 str0" points="1138,227 1138,551 197,551 197,227 "/>
    <rect class="fil0 str0" x="197" y="100" width="948" height="118"/>
    <line class="fil0 str0" x1="263" y1="612" x2="197" y2= "551" />
    <line class="fil0 str0" x1="1072" y1="612" x2="1138" y2= "551" />
    <line class="fil0 str0" x1="858" y1="782" x2="1008" y2= "695" />
    <line class="fil0 str0" x1="907" y1="852" x2="1010" y2= "792" />
    <line class="fil0 str0" x1="320" y1="782" x2="470" y2= "695" />
    <line class="fil0 str0" x1="369" y1="852" x2="472" y2= "792" />
    <rect class="fil0 str0" x="271" y="218" width="792" height="283"/>
    <line class="fil0 str0" x1="100" y1="920" x2="258" y2= "920" />
    <line class="fil0 str0" x1="1076" y1="920" x2="1234" y2= "920" />
   </g>
   <g>
    <polygon class="fil0 str1" points="1857,294 2730,294 2730,198 2294,101 1857,192 "/>
    <line class="fil0 str0" x1="1724" y1="919" x2="2863" y2= "919" />
    <g>
     <path class="fil1" d="M2612 575l0 270 -20 0 0 -270 20 0zm108 270l0 -270 20 0 0 270 -20 0z"/>
    </g>
    <g>
     <path class="fil1" d="M2799 919l0 -11 20 0 0 11 -10 7 -10 -7zm20 0l0 7 -10 0 10 -7zm-295 -7l285 0 0 14 -285 0 -10 -7 10 -7zm0 14l-10 0 0 -7 10 7zm10 -18l0 11 -20 0 0 -11 20 0z"/>
    </g>
    <line class="fil0 str0" x1="2666" y1="571" x2="2666" y2= "791" />
    <path class="fil0 str0" d="M2585 495l160 0c11,0 21,10 21,22l0 31c0,12 -10,22 -21,22l-160 0c-12,0 -21,-10 -21,-22l0 -31c0,-12 9,-22 21,-22z"/>
    <g>
     <path class="fil1" d="M2612 294l0 205 -20 0 0 -205 20 0zm108 205l0 -205 20 0 0 205 -20 0z"/>
    </g>
    <line class="fil0 str0" x1="2666" y1="346" x2="2666" y2= "494" />
    <polyline class="fil0 str0" points="2539,917 2602,845 2730,845 2794,917 "/>
    <g>
     <path class="fil1" d="M1867 575l0 270 -20 0 0 -270 20 0zm108 270l0 -270 20 0 0 270 -20 0z"/>
    </g>
    <g>
     <path class="fil1" d="M2053 919l0 -11 20 0 0 11 -10 7 -10 -7zm20 0l0 7 -10 0 10 -7zm-294 -7l284 0 0 14 -284 0 -10 -7 10 -7zm0 14l-10 0 0 -7 10 7zm10 -18l0 11 -20 0 0 -11 20 0z"/>
    </g>
    <line class="fil0 str0" x1="1921" y1="571" x2="1921" y2= "791" />
    <path class="fil0 str0" d="M1840 495l159 0c12,0 21,10 21,22l0 31c0,12 -9,22 -21,22l-159 0c-12,0 -22,-10 -22,-22l0 -31c0,-12 10,-22 22,-22z"/>
    <g>
     <path class="fil1" d="M1867 294l0 205 -20 0 0 -205 20 0zm108 205l0 -205 20 0 0 205 -20 0z"/>
    </g>
    <line class="fil0 str0" x1="1921" y1="346" x2="1921" y2= "494" />
    <polyline class="fil0 str0" points="1793,917 1857,845 1985,845 2049,917 "/>
    <circle class="fil0 str0" cx="2366" cy="211" r="32"/>
    <circle class="fil0 str0" cx="2493" cy="216" r="27"/>
    <circle class="fil0 str0" cx="2222" cy="211" r="32"/>
    <circle class="fil0 str0" cx="2095" cy="216" r="27"/>
   </g>
   <g>
    <path class="fil0 str0" d="M3495 920l119 0 0 -158 -119 0 0 158zm119 -232l0 -173c0,-16 13,-30 30,-30l35 0 0 -119 -95 0c-49,1 -89,40 -89,89l0 233 119 0zm131 -203l50 0 0 -119 -50 0 0 119zm286 0l65 0 0 -121 -65 1 0 120zm130 0l36 0c16,0 30,14 30,30l0 173 118 0 0 -235c0,-25 -9,-46 -26,-63 -17,-18 -39,-26 -63,-26l-95 0 0 121zm66 277l0 158 118 0 0 -158 -118 0z"/>
    <path class="fil0 str0" d="M3471 688l153 0c16,0 30,13 30,29l0 15c0,17 -14,30 -30,30l-153 0c-17,0 -30,-13 -30,-30l0 -15c0,-16 13,-29 30,-29z"/>
    <path class="fil0 str0" d="M4209 688l154 0c16,0 29,13 29,29l0 15c0,17 -13,30 -29,30l-154 0c-16,0 -29,-13 -29,-30l0 -15c0,-16 13,-29 29,-29z"/>
    <path class="fil0 str0" d="M3745 358l0 135c0,15 -12,27 -27,27l-13 0c-14,0 -26,-12 -26,-27l0 -135c0,-14 12,-26 26,-26l13 0c15,0 27,12 27,26z"/>
    <path class="fil0 str0" d="M4161 358l0 135c0,15 -11,27 -26,27l-13 0c-14,0 -26,-12 -26,-27l0 -135c0,-14 12,-26 26,-26l13 0c15,0 26,12 26,26z"/>
    <path class="fil0 str0" d="M3825 332l176 0c16,0 30,13 30,30l0 128c0,16 -14,30 -30,30l-176 0c-17,0 -30,-14 -30,-30l0 -128c0,-17 13,-30 30,-30z"/>
    <path class="fil0 str0" d="M3851 337l0 -39c0,-11 9,-20 20,-20l89 0c11,0 20,9 20,20l0 39"/>
    <path class="fil0 str0" d="M3814 100l203 0c16,0 29,13 29,30l0 14c0,17 -13,30 -29,30l-203 0c-16,0 -30,-13 -30,-30l0 -14c0,-17 14,-30 30,-30z"/>
    <line class="fil0 str0" x1="3887" y1="174" x2="3887" y2= "278" />
    <line class="fil0 str0" x1="3943" y1="174" x2="3943" y2= "278" />
    <line class="fil0 str0" x1="3351" y1="920" x2="4490" y2= "920" />
    <line class="fil0 str0" x1="3842" y1="472" x2="3927" y2= "472" />
    <line class="fil0 str0" x1="3958" y1="472" x2="3984" y2= "472" />
   </g>
   <g>
    <g>
     <path class="fil0 str0" d="M5528 101l32 0c12,0 21,10 21,22l0 417 -74 0 0 -417c0,-12 9,-22 21,-22z"/>
     <polyline class="fil0 str0" points="5507,199 5374,325 5507,325 "/>
     <line class="fil0 str0" x1="5378" y1="325" x2="5378" y2= "416" />
     <line class="fil0 str0" x1="5333" y1="379" x2="5424" y2= "379" />
     <line class="fil0 str0" x1="5333" y1="416" x2="5424" y2= "416" />
     <polyline class="fil0 str0" points="5507,414 5374,540 5507,540 "/>
     <line class="fil0 str0" x1="5378" y1="540" x2="5378" y2= "631" />
     <line class="fil0 str0" x1="5333" y1="594" x2="5424" y2= "594" />
     <line class="fil0 str0" x1="5333" y1="631" x2="5424" y2= "631" />
     <polyline class="fil0 str0" points="5587,199 5719,325 5587,325 "/>
     <line class="fil0 str0" x1="5715" y1="325" x2="5715" y2= "416" />
     <line class="fil0 str0" x1="5761" y1="379" x2="5670" y2= "379" />
     <line class="fil0 str0" x1="5761" y1="416" x2="5670" y2= "416" />
     <polyline class="fil0 str0" points="5587,414 5719,540 5587,540 "/>
     <line class="fil0 str0" x1="5715" y1="540" x2="5715" y2= "631" />
     <line class="fil0 str0" x1="5761" y1="594" x2="5670" y2= "594" />
     <line class="fil0 str0" x1="5761" y1="631" x2="5670" y2= "631" />
     <line class="fil0 str0" x1="5507" y1="321" x2="5587" y2= "325" />
     <rect class="fil0 str0" x="5504" y="540" width="80.6382" height="375.771"/>
    </g>
    <line class="fil0 str0" x1="4977" y1="919" x2="6117" y2= "919" />
    <g>
     <line class="fil0 str0" x1="5265" y1="598" x2="5107" y2= "470" />
     <line class="fil0 str0" x1="5265" y1="405" x2="5107" y2= "277" />
     <line class="fil0 str0" x1="5828" y1="598" x2="5987" y2= "470" />
     <line class="fil0 str0" x1="5828" y1="405" x2="5987" y2= "277" />
    </g>
   </g>
   <g>
    <g>
     <polyline class="fil0 str0" points="7322,852 7322,920 6772,920 6772,168 6850,168 "/>
     <polygon class="fil0 str0" points="6850,100 7279,100 7400,221 7400,852 6850,852 "/>
     <polyline class="fil0 str0" points="7400,221 7279,221 7279,100 "/>
     <g>
      <path class="fil0 str0" d="M7041 273l-55 0c3,-22 64,-40 64,-76 0,-23 -20,-38 -34,-38 -13,0 -22,0 -22,0l-70 0 0 152 147 0 0 -45c0,0 -7,-31 -31,-31l-13 0"/>
      <path class="fil0 str0" d="M6924 295c9,-48 81,-67 73,-98l-40 0"/>
     </g>
     <line class="fil0 str0" x1="6924" y1="500" x2="7325" y2= "500" />
     <line class="fil0 str0" x1="6924" y1="421" x2="7325" y2= "421" />
     <line class="fil0 str0" x1="6924" y1="657" x2="7325" y2= "657" />
     <line class="fil0 str0" x1="6924" y1="578" x2="7325" y2= "578" />
     <line class="fil0 str0" x1="7210" y1="772" x2="7326" y2= "772" />
     <line class="fil0 str0" x1="7229" y1="801" x2="7261" y2= "745" />
     <line class="fil0 str0" x1="7268" y1="801" x2="7314" y2= "723" />
    </g>
    <g>
     <path class="fil0 str0" d="M7477 206l35 0c8,0 15,10 15,21l0 496 -66 0 0 -496c0,-11 7,-21 16,-21z"/>
     <polyline class="fil0 str0" points="7461,723 7494,814 7527,723 "/>
     <line class="fil0 str0" x1="7461" y1="381" x2="7527" y2= "381" />
     <path class="fil0 str0" d="M7527 240c0,0 48,-22 48,47 0,69 0,165 0,165"/>
    </g>
   </g>
  </g>
  <path class="fil2" d="M234 1436l30 0c7,0 12,-6 12,-12l0 -48c0,-6 -5,-12 -12,-12l-42 0c0,0 -1,0 -2,0 -8,0 -35,2 -57,21 -24,22 -22,48 -21,54l0 31 -30 0c-7,0 -12,5 -12,12l0 51c0,7 5,12 12,12l29 0 0 135c0,7 5,12 11,12l60 0c7,0 12,-5 12,-12l0 -134 34 0c6,0 11,-5 12,-11l6 -52c1,-3 0,-7 -3,-9 -2,-2 -5,-4 -9,-4l-40 0 0 -26c0,-6 2,-8 10,-8zm-16 47l0 0 45 0 -6 49 -39 0c-4,0 -7,3 -7,7l0 140 -57 0 0 -141c0,-3 -3,-6 -7,-6l-34 0 0 -49 36 0c4,0 7,-3 7,-6l0 -39c0,0 0,0 0,-1 -1,-4 -4,-24 16,-42 18,-16 42,-18 48,-18 1,0 2,0 2,0 0,0 0,0 0,0l41 0 0 45 -29 0c-15,0 -23,8 -23,22l0 33c0,3 3,6 7,6z"/>
  <path class="fil2" d="M905 1592c-7,-8 -15,-16 -23,-23 -2,-2 -5,-5 -8,-8l0 0c-4,-3 -5,-6 -6,-8 0,-1 1,-4 4,-8 5,-6 9,-12 14,-18 4,-5 8,-11 12,-16l1 -1c7,-11 15,-21 20,-35 1,-4 2,-9 -1,-14 -3,-5 -9,-6 -13,-7 -2,0 -3,0 -5,0l-50 -1c-9,0 -15,4 -18,12 -2,7 -5,14 -9,22 -7,13 -16,29 -28,42l-1 1c0,1 -2,2 -3,3 -1,-1 -3,-6 -2,-9 0,0 0,0 0,0l0 -57c0,0 -1,0 -1,-1 -1,-8 -3,-16 -16,-18 0,0 -1,0 -1,0l-52 0c-10,0 -15,4 -19,9 -1,1 -4,5 -3,9 2,5 7,6 8,6 6,1 9,4 10,10 2,12 2,25 1,40 -1,4 -1,7 -3,10 0,0 0,1 0,1 -1,0 -1,0 -2,-1 -4,-2 -7,-7 -10,-11 -11,-16 -21,-34 -29,-54 -4,-9 -10,-13 -19,-13 -16,-1 -30,-1 -45,0 -6,0 -11,2 -14,6 -2,4 -2,9 1,15 19,44 38,76 58,104 15,19 29,33 46,43 18,10 38,14 61,14 3,0 6,0 8,0 15,0 21,-6 21,-20 1,-7 1,-13 4,-18 1,-2 2,-3 3,-3 0,0 2,1 3,1 3,2 5,5 7,7 2,2 4,4 6,6 4,5 8,9 13,14 10,10 21,14 34,13l45 0 0 0c1,0 1,0 1,0 5,0 10,-3 12,-8 3,-5 3,-12 0,-19 -3,-6 -8,-12 -12,-17zm1 30l0 0c-1,1 -2,1 -2,1l-45 0c0,0 0,0 0,0 -1,0 -1,0 -1,0 -9,1 -17,-2 -24,-9 -4,-5 -8,-9 -12,-14 -2,-2 -4,-4 -6,-6 -3,-3 -6,-6 -10,-8 -6,-4 -10,-4 -13,-3 -4,0 -8,3 -11,9 -4,7 -5,16 -6,24 0,4 -1,6 -1,6 -1,0 -2,1 -7,1 -24,2 -45,-3 -62,-13 -15,-8 -29,-21 -42,-39 -20,-27 -38,-58 -58,-101 0,-2 -1,-2 -1,-3 1,0 2,0 4,0 14,-1 28,-1 44,0 2,0 5,0 7,5 9,21 19,40 31,57 3,4 7,10 13,14 5,4 10,3 12,3 3,-1 7,-3 10,-9 1,-4 2,-9 3,-14 1,-16 1,-30 -1,-43 -2,-9 -6,-15 -14,-19 2,0 3,-1 5,-1l51 0c3,1 4,2 4,2 1,1 1,4 1,6l1 56c-1,6 2,18 11,21 0,0 0,0 0,0 9,3 14,-3 17,-6l0 -1c14,-14 23,-31 31,-46 3,-7 7,-15 9,-22 2,-3 3,-4 6,-4 0,0 0,0 0,0l50 0c1,0 2,0 3,1 2,0 3,0 4,1 0,0 0,1 -1,3 -4,12 -11,21 -18,31l-1 2c-4,5 -8,10 -12,15 -4,6 -9,12 -13,18 -10,13 -9,22 3,34 3,2 6,5 8,8 8,7 16,14 22,22 4,4 8,9 11,14 1,3 1,6 0,7z"/>
  <g>
   <path class="fil2" d="M1481 1432l-29 0c-9,0 -16,7 -16,16l0 30c0,9 7,16 16,16l29 0c8,0 15,-7 15,-16l0 -30c0,-9 -7,-16 -15,-16zm3 46l0 0c0,2 -1,4 -3,4l-29 0c-2,0 -4,-2 -4,-4l0 -30c0,-2 2,-3 4,-3l29 0c2,0 3,1 3,3l0 30z"/>
   <path class="fil2" d="M1465 1401l-167 0c-34,0 -62,29 -62,64l0 41 0 13 0 110c0,35 28,63 62,63l167 0c34,0 62,-28 62,-63l0 -110 0 -13 0 -41c0,-35 -28,-64 -62,-64zm50 228l0 0c0,28 -23,51 -50,51l-167 0c-28,0 -50,-23 -50,-51l0 -110 74 0c-16,16 -26,37 -26,62 0,47 38,86 85,86 47,0 85,-39 85,-86 0,-25 -10,-46 -25,-62l74 0 0 110zm-61 -48l0 0c0,41 -33,74 -73,74 -40,0 -72,-33 -72,-74 0,-41 32,-75 72,-75 40,0 73,34 73,75zm-29 -75l0 0c-13,-7 -28,-12 -44,-12 -16,0 -30,5 -43,12l-90 0 0 -41c0,-29 22,-51 50,-51l167 0c27,0 50,22 50,51l0 41 -90 0z"/>
   <path class="fil2" d="M1327 1581c0,30 24,55 54,55 30,0 55,-25 55,-55 0,-31 -25,-56 -55,-56 -30,0 -54,25 -54,56zm97 0l0 0c0,24 -19,43 -43,43 -23,0 -42,-19 -42,-43 0,-24 19,-44 42,-44 24,0 43,20 43,44z"/>
  </g>
 </g>
</svg>
